<svg xmlns="http://www.w3.org/2000/svg" viewBox="0 0 18.42 42.84"><g id="Layer_2" data-name="Layer 2"><g id="Layer_1-2" data-name="Layer 1"><polygon points="13.11 37.59 13.11 39.19 13.16 39.18 13.21 39.17 13.25 39.16 13.29 39.15 13.32 39.15 13.34 39.14 13.36 39.13 13.38 39.13 13.4 39.12 13.42 39.11 13.44 39.11 13.46 39.1 13.48 39.09 13.49 39.08 13.51 39.07 13.53 39.06 13.55 39.05 13.57 39.04 13.58 39.03 13.6 39.02 13.62 39.01 13.63 39 13.65 38.99 13.66 38.98 13.68 38.97 13.69 38.95 13.71 38.94 13.72 38.93 13.73 38.92 13.75 38.9 13.76 38.89 13.77 38.88 13.78 38.86 13.79 38.85 13.8 38.83 13.82 38.82 13.83 38.8 13.84 38.79 13.85 38.77 13.86 38.76 13.86 38.74 13.87 38.72 13.88 38.71 13.89 38.69 13.89 38.67 13.9 38.66 13.91 38.64 13.91 38.62 13.92 38.6 13.92 38.58 13.93 38.56 13.93 38.55 13.93 38.53 13.94 38.51 13.94 38.49 13.94 38.47 13.94 38.45 13.94 38.43 13.95 38.41 13.95 38.39 13.95 38.37 13.94 38.35 13.94 38.33 13.94 38.31 13.94 38.29 13.94 38.27 13.93 38.25 13.93 38.23 13.93 38.22 13.92 38.2 13.92 38.18 13.91 38.16 13.9 38.15 13.9 38.13 13.89 38.11 13.88 38.09 13.88 38.08 13.87 38.06 13.86 38.05 13.85 38.03 13.84 38.02 13.83 38 13.82 37.98 13.81 37.97 13.8 37.96 13.79 37.94 13.78 37.93 13.77 37.91 13.76 37.9 13.74 37.89 13.73 37.87 13.72 37.86 13.7 37.85 13.69 37.84 13.67 37.82 13.66 37.81 13.64 37.8 13.63 37.79 13.61 37.78 13.6 37.77 13.58 37.76 13.56 37.75 13.54 37.74 13.53 37.73 13.51 37.72 13.49 37.71 13.47 37.7 13.45 37.69 13.44 37.68 13.39 37.66 13.36 37.65 13.31 37.64 13.27 37.62 13.23 37.61 13.18 37.6 13.13 37.59 13.11 37.59 13.11 37.59"/><polygon points="13.39 7.24 13.45 7.24 13.49 7.24 13.53 7.24 13.57 7.24 13.61 7.23 13.65 7.23 13.69 7.22 13.72 7.21 13.76 7.21 13.8 7.2 13.84 7.19 13.88 7.18 13.91 7.17 13.95 7.16 13.99 7.15 14.02 7.13 14.06 7.12 14.09 7.1 14.13 7.09 14.16 7.07 14.2 7.05 14.23 7.04 14.26 7.02 14.29 7 14.33 6.98 14.36 6.96 14.39 6.94 14.42 6.92 14.45 6.89 14.48 6.87 14.51 6.84 14.54 6.82 14.56 6.79 14.59 6.77 14.62 6.74 14.64 6.71 14.66 6.68 14.69 6.66 14.71 6.63 14.73 6.6 14.76 6.57 14.78 6.54 14.8 6.5 14.82 6.47 14.84 6.44 14.85 6.41 14.87 6.37 14.89 6.34 14.9 6.3 14.92 6.26 14.93 6.23 14.94 6.19 14.95 6.16 14.96 6.12 14.97 6.08 14.98 6.04 14.99 6 15 5.96 15 5.92 15.01 5.88 15.01 5.84 15.01 5.8 15.02 5.76 15.02 5.71 15.02 5.67 15.01 5.63 15.01 5.59 15.01 5.55 15 5.51 15 5.47 14.99 5.43 14.98 5.39 14.97 5.35 14.96 5.31 14.96 5.28 14.94 5.24 14.93 5.2 14.92 5.17 14.9 5.13 14.89 5.1 14.87 5.06 14.86 5.03 14.84 5 14.82 4.97 14.8 4.93 14.78 4.9 14.76 4.87 14.74 4.84 14.72 4.81 14.7 4.78 14.67 4.75 14.65 4.73 14.62 4.7 14.6 4.67 14.57 4.65 14.54 4.62 14.52 4.6 14.49 4.58 14.46 4.55 14.43 4.53 14.4 4.51 14.37 4.49 14.34 4.47 14.31 4.45 14.28 4.43 14.24 4.41 14.21 4.39 14.18 4.38 14.14 4.36 14.11 4.35 14.07 4.33 14.04 4.32 14 4.3 13.97 4.29 13.93 4.28 13.89 4.27 13.86 4.26 13.82 4.25 13.78 4.24 13.74 4.24 13.7 4.23 13.66 4.22 13.63 4.22 13.59 4.22 13.55 4.21 13.51 4.21 13.47 4.21 13.41 4.21 13.37 4.21 13.33 4.21 13.29 4.21 13.25 4.22 13.21 4.22 13.17 4.23 13.13 4.23 13.09 4.24 13.06 4.25 13.02 4.25 12.98 4.26 12.94 4.27 12.91 4.28 12.87 4.29 12.83 4.31 12.8 4.32 12.76 4.33 12.73 4.35 12.69 4.37 12.66 4.38 12.62 4.4 12.59 4.42 12.56 4.43 12.52 4.45 12.49 4.47 12.46 4.49 12.43 4.51 12.4 4.54 12.37 4.56 12.34 4.58 12.31 4.61 12.29 4.63 12.26 4.66 12.23 4.68 12.21 4.71 12.18 4.74 12.15 4.77 12.13 4.79 12.11 4.82 12.09 4.85 12.06 4.88 12.04 4.92 12.02 4.95 12 4.98 11.98 5.01 11.97 5.04 11.95 5.08 11.93 5.11 11.92 5.15 11.9 5.18 11.89 5.22 11.88 5.25 11.87 5.29 11.86 5.33 11.85 5.37 11.84 5.41 11.83 5.45 11.82 5.48 11.82 5.52 11.81 5.57 11.81 5.61 11.81 5.65 11.8 5.69 11.8 5.73 11.8 5.77 11.81 5.81 11.81 5.86 11.81 5.9 11.82 5.94 11.82 5.98 11.83 6.02 11.84 6.06 11.85 6.09 11.86 6.13 11.87 6.17 11.88 6.21 11.89 6.24 11.9 6.28 11.92 6.32 11.93 6.35 11.95 6.38 11.96 6.42 11.98 6.45 12 6.48 12.02 6.52 12.04 6.55 12.06 6.58 12.08 6.61 12.1 6.64 12.13 6.67 12.15 6.7 12.17 6.72 12.2 6.75 12.22 6.78 12.25 6.8 12.28 6.83 12.3 6.85 12.33 6.88 12.36 6.9 12.39 6.92 12.42 6.94 12.45 6.96 12.48 6.99 12.51 7 12.54 7.02 12.58 7.04 12.61 7.06 12.64 7.08 12.68 7.09 12.71 7.11 12.75 7.12 12.78 7.13 12.82 7.15 12.85 7.16 12.89 7.17 12.93 7.18 12.96 7.19 13 7.2 13.04 7.21 13.08 7.22 13.12 7.22 13.16 7.23 13.2 7.23 13.23 7.24 13.27 7.24 13.31 7.24 13.35 7.24 13.39 7.24 13.39 7.24"/><polygon points="12.73 13.15 12.78 13.15 12.8 13.15 12.83 13.15 12.86 13.15 12.88 13.14 12.91 13.14 12.94 13.14 12.96 13.13 12.99 13.13 13.02 13.12 13.04 13.12 13.07 13.11 13.09 13.1 13.12 13.09 13.14 13.09 13.16 13.08 13.19 13.07 13.21 13.06 13.23 13.05 13.26 13.04 13.28 13.03 13.3 13.02 13.32 13 13.34 12.99 13.36 12.98 13.38 12.96 13.4 12.95 13.42 12.94 13.44 12.92 13.46 12.91 13.47 12.89 13.49 12.88 13.51 12.86 13.53 12.84 13.54 12.83 13.56 12.81 13.57 12.79 13.59 12.78 13.6 12.76 13.62 12.74 13.63 12.72 13.64 12.7 13.65 12.68 13.66 12.66 13.68 12.64 13.69 12.62 13.7 12.6 13.71 12.58 13.72 12.56 13.72 12.53 13.73 12.51 13.74 12.49 13.75 12.47 13.75 12.45 13.76 12.42 13.76 12.4 13.77 12.38 13.77 12.35 13.78 12.33 13.78 12.3 13.78 12.28 13.78 12.26 13.78 12.23 13.78 12.21 13.78 12.18 13.78 12.16 13.78 12.13 13.78 12.11 13.78 12.09 13.77 12.06 13.77 12.04 13.76 12.02 13.76 12 13.75 11.97 13.75 11.95 13.74 11.93 13.73 11.91 13.72 11.88 13.72 11.86 13.71 11.84 13.7 11.82 13.69 11.8 13.68 11.78 13.66 11.76 13.65 11.74 13.64 11.72 13.63 11.7 13.62 11.68 13.6 11.66 13.59 11.65 13.57 11.63 13.56 11.61 13.54 11.6 13.53 11.58 13.51 11.56 13.49 11.55 13.47 11.53 13.46 11.52 13.44 11.5 13.42 11.49 13.4 11.47 13.38 11.46 13.36 11.45 13.34 11.43 13.32 11.42 13.3 11.41 13.28 11.4 13.26 11.38 13.23 11.38 13.21 11.37 13.19 11.36 13.16 11.35 13.14 11.34 13.12 11.33 13.09 11.32 13.07 11.31 13.04 11.31 13.02 11.3 12.99 11.3 12.96 11.29 12.94 11.29 12.91 11.28 12.88 11.28 12.86 11.28 12.83 11.28 12.8 11.27 12.78 11.27 12.7 11.27 12.67 11.27 12.64 11.28 12.62 11.28 12.59 11.28 12.56 11.28 12.54 11.29 12.51 11.29 12.48 11.3 12.46 11.3 12.43 11.31 12.41 11.31 12.38 11.32 12.36 11.33 12.33 11.34 12.31 11.35 12.29 11.36 12.26 11.37 12.24 11.38 12.22 11.38 12.19 11.4 12.17 11.41 12.15 11.42 12.13 11.43 12.11 11.45 12.09 11.46 12.07 11.47 12.05 11.49 12.03 11.5 12.01 11.52 11.99 11.53 11.98 11.55 11.96 11.56 11.94 11.58 11.93 11.6 11.91 11.61 11.9 11.63 11.88 11.65 11.87 11.66 11.85 11.68 11.84 11.7 11.83 11.72 11.81 11.74 11.8 11.76 11.79 11.78 11.78 11.8 11.77 11.82 11.76 11.84 11.75 11.86 11.74 11.88 11.74 11.91 11.73 11.93 11.72 11.95 11.71 11.97 11.71 12 11.7 12.02 11.7 12.04 11.7 12.06 11.69 12.09 11.69 12.11 11.69 12.13 11.69 12.16 11.69 12.18 11.68 12.21 11.69 12.23 11.69 12.26 11.69 12.28 11.69 12.3 11.69 12.33 11.7 12.35 11.7 12.38 11.7 12.4 11.71 12.42 11.71 12.45 11.72 12.47 11.73 12.49 11.73 12.51 11.74 12.53 11.75 12.56 11.76 12.58 11.77 12.6 11.78 12.62 11.79 12.64 11.8 12.66 11.81 12.68 11.83 12.7 11.84 12.72 11.85 12.74 11.87 12.76 11.88 12.78 11.89 12.79 11.91 12.81 11.93 12.83 11.94 12.84 11.96 12.86 11.97 12.88 11.99 12.89 12.01 12.91 12.03 12.92 12.05 12.94 12.07 12.95 12.09 12.96 12.11 12.98 12.13 12.99 12.15 13 12.17 13.02 12.19 13.03 12.21 13.04 12.23 13.05 12.26 13.06 12.28 13.07 12.3 13.08 12.33 13.09 12.35 13.09 12.38 13.1 12.4 13.11 12.43 13.12 12.46 13.12 12.48 13.13 12.51 13.13 12.53 13.14 12.56 13.14 12.59 13.14 12.62 13.15 12.64 13.15 12.67 13.15 12.7 13.15 12.73 13.15 12.73 13.15"/><path d="M0,0V42.84H18.42V0ZM13.39,2.52h.49l.08,0H14l.08,0,.07,0,.08,0,.07,0,.07,0,.07,0,.07,0,.07,0,.07,0,.07,0,.07,0,.06,0,.07,0L15,3l.07,0,.06,0,.06,0,.06.05.06,0,.06,0,0,0,.06.05,0,0,.06.06.05.05,0,.06.05.05.05.06,0,.06.05.06,0,.06.05.07L16,4l0,.07,0,.06,0,.07,0,.07,0,.07,0,.07,0,.07,0,.08,0,.07,0,.08,0,.07,0,.08,0,.08V5l0,.08,0,.08V6.31l0,.08v.08l0,.08,0,.08,0,.08,0,.07,0,.08,0,.07,0,.07,0,.08,0,.07,0,.07,0,.06,0,.07,0,.07,0,.06,0,.07,0,.06,0,.06-.05.06,0,.06,0,.06,0,.06-.05,0L15.61,8l-.06.05-.05,0-.06.05,0,.05-.06,0-.06,0-.06,0-.06,0-.06,0-.06,0-.07,0-.06,0-.07,0-.06,0-.07,0-.07,0-.07,0-.07,0-.07,0-.07,0-.08,0-.07,0-.08,0h-.07l-.08,0H12.86l-.07,0h-.08l-.07,0-.08,0-.07,0-.07,0-.07,0-.07,0-.07,0-.07,0-.07,0-.07,0-.06,0-.07,0-.06,0-.07,0-.06,0-.06,0-.06,0-.06-.05-.06,0,0-.05-.06-.05-.05,0L11.22,8,11.17,8l-.05,0,0-.06L11,7.78l0-.06-.05-.06,0-.06-.05-.06,0-.07,0-.06,0-.07,0-.07,0-.07,0-.07,0-.07,0-.07,0-.07,0-.08,0-.07,0-.08,0-.08,0-.07V6.46l0-.08,0-.08V5.13l0-.08V5l0-.08,0-.08,0-.07,0-.08,0-.07,0-.08,0-.07,0-.07,0-.07,0-.07,0-.07,0-.07,0-.07,0-.06,0-.06,0-.07,0-.06L11,3.71l0-.06,0-.06,0,0,.05-.06.05,0,.06-.06.05-.05.06,0,0,0,.06,0,.06-.05.06,0,.06,0,.06,0,.06,0,.07,0,.06,0,.07,0,.07,0,.06,0,.07,0,.07,0,.07,0,.07,0,.07,0,.08,0,.07,0h.08l.07,0h.08l.07,0h.47Zm3,23.76V28H10.44V26.39h3.41l-2.33-1.53v0l2.31-1.51H10.44V21.7h5.94v1.74l-2.3,1.42,2.3,1.42Zm-3.63,6.64H12.2l0,0H12.1l0,0h0l0,0h0l0,0h0l0,0h0v0l0,0h0l0,0v0l0,0v.08l0,0v.73l0,0v.09l0,0v0l0,0v0l0,0,0,0,0,0,0,0,0,0,0,0,0,0,0,0,0,.05.06,0,.05,0-.78,1.08-.06,0-.06,0,0,0-.06,0-.05,0,0-.05-.05,0-.05,0,0-.05,0-.06,0-.05,0,0,0-.06,0-.06,0-.06,0-.06,0-.06,0-.07,0-.07,0-.06,0-.08,0-.07,0-.07,0-.08,0-.08V34.2l0-.08v-.87l0-.06v-.06l0-.05V33l0-.06,0-.06,0,0,0-.06,0,0,0-.05,0-.06,0-.05,0,0,0-.05,0,0,0,0,0,0,0-.05,0,0,0,0,0,0,0,0,0,0,0,0,0,0,0,0,.05,0,0,0,.05,0,0,0,.05,0,.05,0,0,0,.05,0,0,0,.05,0,.05,0,.06,0,.05,0,0,0,.05,0,.06,0,0,0,.06,0h.06l0,0h.12l0,0h.86l.06,0h.11l.06,0h0l.06,0,0,0,.06,0,.05,0,.06,0,0,0,.05,0,0,0,.05,0,.05,0,0,0,.05,0,0,0,0,0,0,0,0,0,0,0,0,0,0,0,.05,0,0,0,0,0,0,0,0,.05,0,0,0,0,0,.05,0,0,0,0,0,.06,0,0,0,.05,0,0,0,.06,0,0,0,.06,0,0,0,.06L15,33l0,.06v.06l0,.06v.06l0,.06v.94l0,.08v.08l0,.07,0,.08,0,.07,0,.07,0,.07,0,.06,0,.07,0,.06,0,.06,0,.06,0,.06,0,.06,0,0,0,.06,0,.05,0,0-.05,0,0,.05-.05,0-.05,0,0,0-.05,0-.06,0-.05,0-.06,0-.82-1.1.06,0,0,0,0,0,0,0,0,0,0,0,0,0,0,0,0,0,0,0,0,0,0,0,0,0v0l0,0v0l0,0h0v0h0v0h0v0h0v0h0V33.4l0,0v0h0v0l0,0v0l0,0h0l0,0v0h0l0,0h0l0,0h0l0,0h0l0,0h-.61Zm-2.31-2.28V29H15v1.62Zm0-9.93V19.09H15v1.62ZM15,18.36h-1.3V17.29h-2v0h0v.51l0,0v0l0,0v0l0,0H10.61l0,0v0l0,0v0l0-.06,0-.06,0-.06,0-.07,0-.07,0-.07v-.07l0-.07V16.61l0,0v-.14l0,0v0l0,0v0l0,0,0,0,0,0,0,0,0,0,0,0,0,0,0,0,0,0,0,0,0,0,0,0,0,0,0,0,0,0,0,0,0,0,0,0h0l0,0,0,0h0l0,0h2.6v-.55H15v.55H16.2v1.61H15v1.07ZM7.88,23.13H1.94V21.47H7.88v1.66Zm0-2.78H1.94V18.69H7.88v1.66Zm0-8.6H5.47L7.88,13.8v1.95L5.33,13.5,1.94,15.83v-2l2.21-1.5-.68-.6H1.94V10.1H7.88v1.65Zm0-7.29L5.58,5.88,7.88,7.3V9.05H1.94V7.4H5.35L3,5.88v0L5.33,4.34H1.94V2.72H7.88V4.46Zm1.2,5.23H15v1.62h-.61l.07.06.07.06,0,0,0,0,0,0,0,0,0,0,0,0,0,0,0,0,0,0,0,0,0,0,0,0,0,.05,0,0,0,0,0,0,0,.05,0,.05v0l0,.05v1l0,.05v0l0,.05,0,0,0,0,0,0,0,0,0,0,0,0,0,0,0,0,0,0,0,0,0,0,0,0,0,0,0,0,0,0,0,0,0,0,0,0,0,0,0,0,0,0-.05,0,0,0,0,0-.05,0,0,0,0,0,0,0-.05,0,0,0-.05,0-.05,0-.06,0-.05,0-.06,0h0l-.06,0-.06,0H13.4l-.06,0h-1.2l-.06,0H12l-.06,0-.06,0h-.05l-.06,0-.05,0-.06,0,0,0-.05,0,0,0-.05,0-.05,0,0,0-.05,0,0,0-.05,0,0,0,0,0,0,0-.05,0,0,0,0,0,0,0,0,0,0,0,0,0,0,0,0,0,0,0,0,0,0,0,0-.05,0,0,0,0,0,0,0,0,0,0,0,0,0,0,0,0v0l0-.05v-.9l0-.06v-.1l0-.06v0l0-.05,0,0,0,0,0,0,0,0,0,0,0,0,0,0,0,0,0,0,0,0,0,0,0,0,0,0,0,0,0,0,0,0,0,0,.06-.06,0,0H9.08V9.69Zm3.54,31h-.33V37.61h-.35l0,0h-.05v0h0l0,0h0l0,0h0v0l0,0h0v0h0v0h0v.08h0V39l0,0v.1l0,0,0,0v0l0,0,0,0,0,0,0,0,0,0,0,0,0,0,0,0,0,0,0,.07.06.06-.74.89,0,0-.05,0-.05,0,0,0L11,40.3l0,0-.05,0,0-.05-.05,0,0-.05,0-.06,0-.05,0-.06,0-.06,0-.06,0-.06,0-.06,0-.07,0-.06,0-.07,0-.07,0-.07,0-.07,0-.07v-.07l0-.08V37.88l0-.06v-.06l0-.06,0-.06,0-.06,0,0,0-.06,0,0,0-.06,0,0,0-.05,0,0,0-.05,0,0,0,0,0-.05,0,0,0,0,0,0,0-.05,0,0,0,0,0,0,0,0,0,0,0,0,0,0,.05,0,0,0,.05,0,.05,0,0,0,.05,0,0,0,.05,0,.05,0,0,0,.06,0,0,0,.06,0,.05,0,.06,0H12l.06,0h.06l.06,0h1.08l.06,0h.05l.06,0h.06l.05,0,.06,0,.05,0,.06,0,0,0,.05,0,.05,0,0,0,.05,0,0,0,.05,0,.05,0,0,0,0,0,0,0,0,0,0,0,.05,0,0,0,0,0,0,0,0,0,0,0,0,0,0,.05,0,0,0,0,0,0,0,0,0,0,0,.05,0,0,0,.05,0,0,0,0,0,.06,0,0,0,.05,0,.06,0,.06v.11l0,.06v.91l0,.07V39l0,.06v.06l0,.06,0,.06,0,.06,0,.06,0,0,0,.06,0,.05,0,0,0,0,0,.05,0,0,0,.05,0,0,0,0,0,0,0,0,0,0,0,0,0,0,0,0,0,0,0,0,0,0-.05,0-.05,0,0,0-.05,0,0,0-.05,0,0,0-.05,0-.06,0,0,0-.05,0-.06,0,0,0-.06,0-.05,0h-.06l-.06,0h-.17l-.06,0h-.56Zm4-10H15.45V29h1.19v1.68Zm0-9.93H15.45V19.06h1.19v1.68Z"/></g></g></svg>