<svg xmlns="http://www.w3.org/2000/svg" viewBox="0 0 18.42 42.84"><g id="Layer_2" data-name="Layer 2"><g id="Layer_1-2" data-name="Layer 1"><path d="M13.11,37.59v1.6c.51-.06.84-.36.84-.8S13.61,37.67,13.11,37.59Z"/><path d="M13.39,7.24h0A1.55,1.55,0,0,0,15,5.71a1.51,1.51,0,0,0-1.59-1.5h0A1.55,1.55,0,0,0,11.8,5.73,1.51,1.51,0,0,0,13.39,7.24Z"/><path d="M12.73,13.15h0a.94.94,0,1,0,0-1.88h0a.95.95,0,1,0,0,1.88Z"/><path d="M0,0V42.84H18.42V0ZM13.39,2.52h0A3.11,3.11,0,0,1,16.5,5.73a3.08,3.08,0,0,1-3.07,3.2h0a3.12,3.12,0,0,1-3.09-3.22A3.08,3.08,0,0,1,13.39,2.52Zm3,23.76V28H10.44V26.39h3.41l-2.33-1.53v0l2.31-1.51H10.44V21.7h5.94v1.74l-2.3,1.42Zm-3.63,6.64h0a1,1,0,0,0-1.05.92,1.09,1.09,0,0,0,.48.88l-.78,1.08a2.27,2.27,0,0,1-1.06-2,2.37,2.37,0,0,1,2.39-2.4h0a2.39,2.39,0,0,1,2.4,2.46,2.18,2.18,0,0,1-1,2l-.82-1.1a1,1,0,0,0,.49-.86A1,1,0,0,0,12.75,32.92Zm-2.31-2.28V29H15v1.62Zm0-9.93V19.09H15v1.62ZM15,18.36h-1.3V17.29H12.18c-.33,0-.46.15-.46.44a1.44,1.44,0,0,0,.15.61H10.61a2.18,2.18,0,0,1-.27-1.12,1.34,1.34,0,0,1,1.52-1.54h1.87v-.55H15v.55H16.2v1.61H15ZM7.88,23.13H1.94V21.47H7.88Zm0-2.78H1.94V18.69H7.88Zm0-8.6H5.47L7.88,13.8v1.95L5.33,13.5,1.94,15.83v-2l2.21-1.5-.68-.6H1.94V10.1H7.88Zm0-7.29L5.58,5.88,7.88,7.3V9.05H1.94V7.4H5.35L3,5.88v0L5.33,4.34H1.94V2.72H7.88Zm1.2,5.23H15v1.62h-.61a1.68,1.68,0,0,1,.72,1.39,2.15,2.15,0,0,1-2.38,2h0a2.16,2.16,0,0,1-2.41-2,1.71,1.71,0,0,1,.67-1.4H9.08Zm3.54,31h-.33V37.61a1,1,0,0,0-.76,1,1.4,1.4,0,0,0,.47,1l-.74.89a2.41,2.41,0,0,1-.94-2,2.31,2.31,0,0,1,2.39-2.46h0a2.31,2.31,0,0,1,2.41,2.32A2.27,2.27,0,0,1,12.62,40.7Zm4-10H15.45V29h1.19Zm0-9.93H15.45V19.06h1.19Z"/></g></g></svg>