<svg id="Layer_1" data-name="Layer 1" xmlns="http://www.w3.org/2000/svg" viewBox="0 0 800 800"><defs><style>.cls-1{fill:#010101;}</style></defs><polygon class="cls-1" points="404.4 416.17 404.4 417.77 404.45 417.76 404.5 417.75 404.54 417.74 404.58 417.73 404.61 417.73 404.63 417.72 404.65 417.71 404.67 417.71 404.69 417.7 404.71 417.69 404.73 417.69 404.75 417.68 404.77 417.67 404.79 417.66 404.8 417.65 404.82 417.64 404.84 417.63 404.86 417.62 404.87 417.61 404.89 417.6 404.91 417.59 404.92 417.58 404.94 417.57 404.95 417.56 404.97 417.55 404.98 417.54 405 417.52 405.01 417.51 405.02 417.5 405.04 417.48 405.05 417.47 405.06 417.46 405.07 417.44 405.08 417.43 405.1 417.41 405.11 417.4 405.12 417.38 405.13 417.37 405.14 417.35 405.14 417.34 405.15 417.32 405.16 417.3 405.17 417.29 405.18 417.27 405.18 417.25 405.19 417.24 405.2 417.22 405.2 417.2 405.21 417.18 405.21 417.16 405.22 417.14 405.22 417.13 405.22 417.11 405.23 417.09 405.23 417.07 405.23 417.05 405.23 417.03 405.23 417.01 405.24 416.99 405.24 416.97 405.24 416.95 405.23 416.93 405.23 416.91 405.23 416.89 405.23 416.87 405.23 416.85 405.22 416.83 405.22 416.81 405.22 416.8 405.21 416.78 405.21 416.76 405.2 416.74 405.2 416.73 405.19 416.71 405.18 416.69 405.18 416.68 405.17 416.66 405.16 416.64 405.15 416.63 405.14 416.61 405.13 416.6 405.12 416.58 405.11 416.56 405.1 416.55 405.09 416.54 405.08 416.52 405.07 416.51 405.06 416.49 405.05 416.48 405.03 416.47 405.02 416.45 405.01 416.44 404.99 416.43 404.98 416.42 404.96 416.4 404.95 416.39 404.93 416.38 404.92 416.37 404.9 416.36 404.89 416.35 404.87 416.34 404.85 416.32 404.83 416.31 404.82 416.31 404.8 416.3 404.78 416.29 404.76 416.28 404.74 416.27 404.73 416.26 404.69 416.25 404.64 416.23 404.6 416.22 404.56 416.2 404.52 416.19 404.47 416.18 404.43 416.17 404.4 416.17 404.4 416.17"/><polygon class="cls-1" points="404.68 385.82 404.74 385.82 404.78 385.82 404.82 385.82 404.86 385.82 404.9 385.81 404.94 385.81 404.98 385.8 405.01 385.8 405.05 385.79 405.09 385.78 405.13 385.77 405.17 385.76 405.2 385.75 405.24 385.74 405.28 385.73 405.31 385.71 405.35 385.7 405.38 385.68 405.42 385.67 405.45 385.65 405.49 385.63 405.52 385.62 405.55 385.6 405.59 385.58 405.62 385.56 405.65 385.54 405.68 385.52 405.71 385.5 405.74 385.47 405.77 385.45 405.8 385.42 405.82 385.4 405.85 385.37 405.88 385.35 405.9 385.32 405.93 385.29 405.95 385.26 405.98 385.24 406 385.21 406.02 385.18 406.05 385.15 406.07 385.12 406.09 385.08 406.11 385.05 406.13 385.02 406.14 384.98 406.16 384.95 406.18 384.92 406.19 384.88 406.21 384.85 406.22 384.81 406.23 384.77 406.24 384.74 406.25 384.7 406.26 384.66 406.27 384.62 406.28 384.58 406.29 384.54 406.29 384.5 406.3 384.46 406.3 384.42 406.3 384.38 406.31 384.34 406.31 384.29 406.31 384.25 406.3 384.21 406.3 384.17 406.3 384.13 406.29 384.09 406.29 384.05 406.28 384.01 406.27 383.97 406.26 383.93 406.25 383.89 406.25 383.86 406.23 383.82 406.22 383.78 406.21 383.75 406.19 383.71 406.18 383.68 406.16 383.64 406.15 383.61 406.13 383.58 406.11 383.55 406.09 383.51 406.07 383.48 406.05 383.45 406.03 383.42 406.01 383.39 405.99 383.36 405.96 383.33 405.94 383.31 405.91 383.28 405.89 383.25 405.86 383.23 405.83 383.2 405.81 383.18 405.78 383.15 405.75 383.13 405.72 383.11 405.69 383.09 405.66 383.07 405.63 383.05 405.6 383.03 405.57 383.01 405.53 382.99 405.5 382.97 405.47 382.96 405.43 382.94 405.4 382.93 405.36 382.91 405.33 382.9 405.29 382.88 405.26 382.87 405.22 382.86 405.18 382.85 405.15 382.84 405.11 382.83 405.07 382.82 405.03 382.82 404.99 382.81 404.95 382.81 404.92 382.8 404.88 382.8 404.84 382.79 404.8 382.79 404.76 382.79 404.7 382.79 404.66 382.79 404.62 382.79 404.58 382.79 404.54 382.8 404.5 382.8 404.46 382.81 404.42 382.81 404.38 382.82 404.35 382.82 404.31 382.83 404.27 382.84 404.23 382.85 404.2 382.86 404.16 382.88 404.12 382.89 404.09 382.9 404.05 382.91 404.02 382.93 403.98 382.94 403.95 382.96 403.91 382.98 403.88 383 403.85 383.01 403.81 383.03 403.78 383.05 403.75 383.07 403.72 383.1 403.69 383.12 403.66 383.14 403.63 383.16 403.6 383.19 403.57 383.21 403.55 383.24 403.52 383.26 403.5 383.29 403.47 383.32 403.44 383.35 403.42 383.37 403.4 383.4 403.38 383.43 403.35 383.46 403.33 383.49 403.31 383.53 403.29 383.56 403.27 383.59 403.26 383.62 403.24 383.66 403.22 383.69 403.21 383.73 403.19 383.76 403.18 383.8 403.17 383.83 403.16 383.87 403.15 383.91 403.14 383.95 403.13 383.99 403.12 384.02 403.11 384.06 403.11 384.1 403.1 384.14 403.1 384.19 403.1 384.23 403.09 384.27 403.09 384.31 403.09 384.35 403.1 384.39 403.1 384.44 403.1 384.48 403.11 384.52 403.11 384.56 403.12 384.6 403.13 384.64 403.13 384.68 403.14 384.71 403.15 384.75 403.17 384.79 403.18 384.82 403.19 384.86 403.21 384.89 403.22 384.93 403.24 384.96 403.25 385 403.27 385.03 403.29 385.06 403.31 385.1 403.33 385.13 403.35 385.16 403.37 385.19 403.39 385.22 403.42 385.25 403.44 385.28 403.46 385.3 403.49 385.33 403.51 385.36 403.54 385.38 403.57 385.41 403.59 385.43 403.62 385.46 403.65 385.48 403.68 385.5 403.71 385.52 403.74 385.54 403.77 385.56 403.8 385.58 403.83 385.6 403.87 385.62 403.9 385.64 403.93 385.66 403.97 385.67 404 385.69 404.04 385.7 404.07 385.71 404.11 385.73 404.14 385.74 404.18 385.75 404.22 385.76 404.25 385.77 404.29 385.78 404.33 385.79 404.37 385.8 404.41 385.8 404.45 385.81 404.49 385.81 404.52 385.82 404.56 385.82 404.6 385.82 404.64 385.82 404.68 385.82 404.68 385.82"/><polygon class="cls-1" points="404.02 391.73 404.06 391.73 404.09 391.73 404.12 391.73 404.15 391.73 404.18 391.72 404.2 391.72 404.23 391.72 404.25 391.71 404.28 391.71 404.31 391.7 404.33 391.69 404.36 391.69 404.38 391.68 404.41 391.67 404.43 391.67 404.45 391.66 404.48 391.65 404.5 391.64 404.52 391.63 404.55 391.62 404.57 391.61 404.59 391.6 404.61 391.58 404.63 391.57 404.65 391.56 404.67 391.55 404.69 391.53 404.71 391.52 404.73 391.5 404.75 391.49 404.76 391.47 404.78 391.46 404.8 391.44 404.81 391.42 404.83 391.41 404.85 391.39 404.86 391.37 404.88 391.35 404.89 391.34 404.9 391.32 404.92 391.3 404.93 391.28 404.94 391.26 404.95 391.24 404.97 391.22 404.98 391.2 404.99 391.18 405 391.16 405.01 391.14 405.01 391.11 405.02 391.09 405.03 391.07 405.04 391.05 405.04 391.02 405.05 391 405.05 390.98 405.06 390.96 405.06 390.93 405.07 390.91 405.07 390.88 405.07 390.86 405.07 390.84 405.07 390.81 405.07 390.79 405.07 390.76 405.07 390.74 405.07 390.71 405.07 390.69 405.07 390.67 405.06 390.64 405.06 390.62 405.05 390.6 405.05 390.57 405.04 390.55 405.04 390.53 405.03 390.51 405.02 390.49 405.01 390.46 405.01 390.44 405 390.42 404.99 390.4 404.98 390.38 404.97 390.36 404.95 390.34 404.94 390.32 404.93 390.3 404.92 390.28 404.9 390.26 404.89 390.25 404.88 390.23 404.86 390.21 404.85 390.19 404.83 390.18 404.81 390.16 404.8 390.14 404.78 390.13 404.76 390.11 404.75 390.1 404.73 390.08 404.71 390.06 404.69 390.05 404.67 390.04 404.65 390.02 404.63 390.01 404.61 390 404.59 389.99 404.57 389.98 404.55 389.96 404.52 389.95 404.5 389.94 404.48 389.94 404.45 389.93 404.43 389.92 404.41 389.91 404.38 389.9 404.36 389.89 404.33 389.89 404.31 389.88 404.28 389.88 404.25 389.87 404.23 389.87 404.2 389.86 404.18 389.86 404.15 389.86 404.12 389.86 404.09 389.85 404.06 389.85 403.99 389.85 403.96 389.85 403.94 389.86 403.91 389.86 403.88 389.86 403.85 389.86 403.83 389.87 403.8 389.87 403.77 389.88 403.75 389.88 403.72 389.89 403.7 389.89 403.67 389.9 403.65 389.91 403.62 389.92 403.6 389.93 403.57 389.94 403.55 389.94 403.53 389.95 403.51 389.96 403.48 389.98 403.46 389.99 403.44 390 403.42 390.01 403.4 390.02 403.38 390.04 403.36 390.05 403.34 390.06 403.32 390.08 403.3 390.1 403.29 390.11 403.27 390.13 403.25 390.14 403.23 390.16 403.22 390.18 403.2 390.19 403.19 390.21 403.17 390.23 403.16 390.25 403.14 390.26 403.13 390.28 403.12 390.3 403.11 390.32 403.09 390.34 403.08 390.36 403.07 390.38 403.06 390.4 403.05 390.42 403.04 390.44 403.03 390.46 403.03 390.49 403.02 390.51 403.01 390.53 403 390.55 403 390.57 402.99 390.6 402.99 390.62 402.99 390.64 402.98 390.67 402.98 390.69 402.98 390.71 402.98 390.74 402.98 390.76 402.97 390.79 402.98 390.81 402.98 390.84 402.98 390.86 402.98 390.88 402.98 390.91 402.99 390.93 402.99 390.96 402.99 390.98 403 391 403 391.02 403.01 391.05 403.02 391.07 403.02 391.09 403.03 391.11 403.04 391.14 403.05 391.16 403.06 391.18 403.07 391.2 403.08 391.22 403.09 391.24 403.1 391.26 403.12 391.28 403.13 391.3 403.14 391.32 403.16 391.34 403.17 391.35 403.18 391.37 403.2 391.39 403.21 391.41 403.23 391.42 403.25 391.44 403.26 391.46 403.28 391.47 403.3 391.49 403.32 391.5 403.34 391.52 403.36 391.53 403.38 391.55 403.4 391.56 403.42 391.57 403.44 391.58 403.46 391.6 403.48 391.61 403.5 391.62 403.52 391.63 403.55 391.64 403.57 391.65 403.6 391.66 403.62 391.67 403.64 391.67 403.67 391.68 403.69 391.69 403.72 391.69 403.75 391.7 403.77 391.71 403.8 391.71 403.82 391.72 403.85 391.72 403.88 391.72 403.91 391.73 403.93 391.73 403.96 391.73 403.99 391.73 404.02 391.73 404.02 391.73"/><path class="cls-1" d="M391.29,378.58v42.84h18.42V378.58Zm13.39,2.52h.49l.08,0h.07l.08,0,.07,0,.08,0,.07,0,.07,0,.07,0,.07,0,.07,0,.07,0,.07,0,.07,0,.06,0,.07,0,.06,0,.07,0,.06,0,.06,0,.06.05.06,0,.06.05.05.05.06.05.05,0,.06.06.05.05.05.06.05.05,0,.06,0,.06.05.06,0,.06,0,.07,0,.06,0,.07,0,.06,0,.07,0,.07,0,.07,0,.07,0,.07,0,.08,0,.07,0,.08,0,.07,0,.08,0,.08v.08l0,.07,0,.09v1.16l0,.08v.08l0,.08,0,.08,0,.08,0,.07,0,.08,0,.07,0,.07,0,.08,0,.07,0,.07,0,.06,0,.07,0,.07,0,.06,0,.07,0,.06,0,.06-.05.06-.05.06,0,.06-.05.06-.05.05-.05.06-.06,0,0,.05-.06.05-.05.05-.06.05-.06,0-.06.05-.06,0-.06,0-.06,0-.07,0-.06,0-.07,0-.06,0-.07,0-.07,0-.07,0-.07,0-.07,0-.07,0-.08,0-.07,0-.07,0h-.08l-.08,0h-1.11l-.07,0H404l-.07,0-.08,0-.07,0-.07,0-.07,0-.07,0-.07,0-.07,0-.07,0-.07,0-.06,0-.07,0-.06,0-.07,0-.06,0-.06,0-.06,0-.06-.05-.06,0-.05-.05-.06-.05-.05-.05-.06-.05-.05-.06,0,0-.05-.06-.05-.06,0-.06,0-.06,0-.06-.05-.06,0-.07,0-.06,0-.07,0-.07,0-.07,0-.07,0-.07,0-.07,0-.07,0-.08,0-.07,0-.08,0-.08,0-.07V385l0-.08,0-.08v-1.17l0-.08v-.08l0-.08,0-.08,0-.07,0-.08,0-.07,0-.08,0-.07,0-.07,0-.07,0-.07,0-.07,0-.07,0-.07,0-.06,0-.06,0-.07,0-.06.05-.06.05-.06,0-.06,0-.05.05-.06.05-.05.06-.06.05-.05.06,0,.05-.05.06,0,.06-.05.06,0,.06-.05.06,0,.06,0,.07,0,.06,0,.07,0,.07,0,.06,0,.07,0,.07,0,.07,0,.07,0,.07,0,.08,0,.07,0H404l.07,0h.08l.07,0h.47Zm3,23.76v1.75h-5.94V405h3.41l-2.33-1.52v0l2.31-1.51h-3.39v-1.62h5.94V402l-2.3,1.42,2.3,1.42ZM404,411.5h-.55l0,0h-.08l0,0h0l0,0h0l0,0h0l0,0h0v0l0,0h0l0,0v0l0,0V412h0l0,0v.73l0,0v.09l0,0v0l0,0v0l0,0,0,0,0,0,0,0,0,0,0,0,0,0,0,0,0,0,.06.05.05,0-.78,1.08-.06,0-.06,0-.05,0-.06-.05-.05,0-.05-.05,0,0-.05-.05-.05,0,0-.06,0-.05,0-.06,0-.05,0-.06,0-.06,0-.06,0-.06,0-.07,0-.07,0-.07,0-.07,0-.07,0-.07,0-.08,0-.08v-.16l0-.08v-.87l0-.06v-.06l0,0v-.06l0-.06,0-.06,0-.05,0-.06,0-.05,0-.05,0-.06,0,0,0-.05,0-.05,0-.05,0-.05,0,0,0-.05,0,0,0-.05,0,0,0-.05,0,0,0,0,0,0,0,0,.05,0,0,0,.05,0,0,0,.05,0,.05,0,0,0,0,0,.05,0,.05,0,.05,0,.06,0,0,0,.05,0,.06,0,.05,0,.05,0,.06,0h.06l.05,0h.12l.05,0h.86l.06,0h.11l.06,0h.05l.06,0,.05,0,.06,0,.05,0,.06,0,.05,0,.05,0,0,0,.05,0,.05,0,.05,0,.05,0,0,0,0,0,.05,0,0,0,.05,0,0,0,0,0,0,0,0,0,0,0,0,0,0,.05,0,0,0,.05,0,.05,0,.05,0,0,0,.05,0,.06,0,.05,0,.05,0,.06,0,0,0,.06,0,.05,0,.06,0,.06,0,.06v.06l0,.06v.06l0,.06v1l0,.08,0,.07,0,.08,0,.07,0,.07,0,.07,0,.06,0,.07,0,.06,0,.06,0,.06,0,.06,0,.06,0,.05-.05.06,0,.05,0,.05-.05,0-.05.05-.05,0,0,.05-.05,0-.05,0-.06,0-.05,0-.06,0-.82-1.1.06,0,0,0,0,0,0,0,0,0,0,0,0,0,0,0,0,0,0,0,0,0,0,0,0,0v0l0,0v0l0,0h0v0h0v0h0v0h0v0h0V412l0,0v0h0v0l0,0v0l0,0h0l0,0v0h0l0,0h0l0,0h0l0,0h0l0,0H404Zm-2.31-2.29V407.6h4.59v1.61Zm0-9.92v-1.62h4.59v1.62Zm4.59-2.35H405v-1.07h-2v0h0v.51l0,0v0l0,0v0l0,0H401.9l0,0v0l0,0v0l0-.06,0-.06,0-.06,0-.07,0-.07,0-.07v-.07l0-.07v-1.09l0,0V395l0,0v0l0,0v0l0,0,0,0,0,0,0,0,0,0,0,0,0,0,0,0,0,0,0,0,0,0,0,0,0,0,0,0,0,0,0,0,0,0,0,0h0l0,0,0,0h0l0,0h.15l0,0H405v-.55h1.3v.55h1.17v1.61h-1.17v1.07Zm-7.15,4.77h-5.94v-1.66h5.94v1.66Zm0-2.78h-5.94v-1.66h5.94v1.66Zm0-8.6h-2.41l2.41,2.05v1.95l-2.55-2.25-3.39,2.33v-2l2.21-1.5-.68-.6h-1.53v-1.65h5.94v1.65Zm0-7.29-2.3,1.42,2.3,1.42v1.75h-5.94V386h3.41l-2.33-1.52v0l2.31-1.51h-3.39V381.3h5.94V383Zm1.2,5.23h5.95v1.62h-.61l.07.06.07.06,0,0,0,0,0,0,0,0,0,0,0,0,0,0,0,0,0,0,0,0,0,0,0,0,0,.05,0,0,0,0,0,.05,0,.05,0,.05v0l0,.05v1l0,.05v0l0,.05,0,0,0,0,0,.05,0,0,0,.05,0,0,0,0,0,0,0,.05,0,0,0,0,0,0,0,0,0,0,0,0,0,0,0,0,0,0,0,0,0,0,0,0-.05,0,0,0,0,0-.05,0,0,0-.05,0,0,0-.05,0-.05,0-.05,0-.05,0-.06,0,0,0-.06,0h-.05l-.06,0-.06,0h-.12l-.06,0h-1.2l-.06,0h-.12l-.06,0-.06,0h-.05l-.06,0,0,0-.06,0-.05,0-.05,0-.05,0-.05,0,0,0-.05,0-.05,0,0,0,0,0,0,0,0,0,0,0-.05,0,0,0,0,0,0,0,0,0,0,0,0,0,0,0,0,0,0,0,0,0,0,0,0-.05,0,0,0,0,0-.05,0,0,0-.05,0,0,0,0,0,0v-.05l0-.05v-1.06l0-.06v0l0-.05,0-.05,0-.05,0,0,0,0,0,0,0,0,0,0,0,0,0,0,0,0,0,0,0,0,0,0,0,0,0,0,0,0,0,0,.06-.06,0,0h-1.92v-1.62Zm3.54,31h-.33v-3.08h-.35l0,0h0v0h0l0,0h0l0,0h0v0h0v0h0v0h0v.06h0v.89l0,0v.1l0,0,0,0v0l0,0,0,0,0,0,0,0,0,0,0,0,0,0,0,0,0,0,.05.07.06.06-.74.89-.05,0-.05,0-.05,0,0,0-.05-.05,0-.05-.05-.05,0,0,0-.05-.05-.05,0-.06,0-.05,0-.06,0-.06,0-.06,0-.06,0-.06,0-.07,0-.06,0-.07,0-.07,0-.07,0-.07,0-.07v-.07l0-.08v-1.13l0-.06v-.06l0-.06,0-.06,0-.06,0-.05,0-.06,0-.05,0-.06,0-.05,0-.05,0,0,0-.05,0-.05,0-.05,0-.05,0,0,0-.05,0,0,0,0,0,0,0,0,0,0,0,0,0,0,0,0,0,0,0,0,0,0,.05,0,.05,0,.05,0,0,0,.05,0,.05,0,.05,0,.05,0,.06,0,.05,0,.06,0,.05,0,.06,0h.06l.06,0h.06l.06,0h1.08l.06,0h.05l.06,0h.06l.05,0,.06,0,0,0,.06,0,.05,0,.05,0,.05,0,.05,0,0,0,.05,0,.05,0,.05,0,.05,0,0,0,.05,0,0,0,0,0,.05,0,0,0,0,0,0,0,0,0,0,0,0,0,0,.05,0,0,0,.05,0,0,0,.05,0,0,0,.05,0,.05,0,.05,0,.05,0,0,0,.06,0,.05,0,.05,0,.06,0,.06v.11l0,.06v1l0,.06v.07l0,.06v.06l0,.06,0,.06,0,.06,0,.06,0,.05,0,.06,0,.05,0,0,0,.05,0,.05,0,.05,0,.05,0,0,0,.05,0,0,0,0,0,0,0,0,0,0,0,0-.05,0,0,0,0,0,0,0-.05,0,0,0-.05,0,0,0-.05,0-.05,0-.05,0-.06,0-.05,0,0,0-.06,0-.05,0-.06,0-.05,0h-.06l-.06,0h-.79Zm4-10h-1.19v-1.68h1.19v1.68Zm0-9.93h-1.19v-1.68h1.19v1.68Z"/></svg>