<?xml version="1.0" encoding="UTF-8" standalone="no"?>
<svg
   xmlns:dc="http://purl.org/dc/elements/1.1/"
   xmlns:cc="http://creativecommons.org/ns#"
   xmlns:rdf="http://www.w3.org/1999/02/22-rdf-syntax-ns#"
   xmlns:svg="http://www.w3.org/2000/svg"
   xmlns="http://www.w3.org/2000/svg"
   xmlns:sodipodi="http://sodipodi.sourceforge.net/DTD/sodipodi-0.dtd"
   xmlns:inkscape="http://www.inkscape.org/namespaces/inkscape"
   inkscape:version="1.0 (4035a4f, 2020-05-01)"
   sodipodi:docname="title_after_inkscape.svg"
   id="svg8"
   version="1.1"
   viewBox="0 0 5.1381874 11.599292"
   height="11.599292mm"
   width="5.1381874mm">
  <defs
     id="defs2">
    <style
       id="style319">.cls-1{fill:#010101;}</style>
  </defs>
  <sodipodi:namedview
     inkscape:window-maximized="0"
     inkscape:window-y="23"
     inkscape:window-x="1440"
     inkscape:window-height="1035"
     inkscape:window-width="1920"
     fit-margin-bottom="0"
     fit-margin-right="0"
     fit-margin-left="0"
     fit-margin-top="0"
     showgrid="false"
     inkscape:document-rotation="0"
     inkscape:current-layer="Layer_1-2"
     inkscape:document-units="mm"
     inkscape:cy="13.665051"
     inkscape:cx="18.09603"
     inkscape:zoom="9.9460577"
     inkscape:pageshadow="2"
     inkscape:pageopacity="0.0"
     borderopacity="1.0"
     bordercolor="#666666"
     pagecolor="#ffffff"
     id="base" />
  <metadata
     id="metadata5">
    <rdf:RDF>
      <cc:Work
         rdf:about="">
        <dc:format>image/svg+xml</dc:format>
        <dc:type
           rdf:resource="http://purl.org/dc/dcmitype/StillImage" />
        <dc:title></dc:title>
      </cc:Work>
    </rdf:RDF>
  </metadata>
  <g
     transform="translate(-3.3541112,-281.43644)"
     id="layer1"
     inkscape:groupmode="layer"
     inkscape:label="Layer 1">
    <g
       transform="matrix(0.26458333,0,0,0.26458333,3.7367991,281.9725)"
       data-name="Layer 1"
       id="Layer_1-2">
      <g
         style="fill:#ff00ff"
         transform="translate(-0.94637961,-1.5260593)"
         data-name="Layer 1"
         id="Layer_1-2-4">
        <g
           style="opacity:1;fill:#ff00ff"
           id="g398">
          <path
             id="path400"
             d="m 13.11,37.59 v 1.6 c 0.51,-0.06 0.84,-0.36 0.84,-0.8 0,-0.44 -0.34,-0.72 -0.84,-0.8 z"
             style="color:#000000;font-style:normal;font-variant:normal;font-weight:normal;font-stretch:normal;font-size:medium;line-height:normal;font-family:sans-serif;font-variant-ligatures:normal;font-variant-position:normal;font-variant-caps:normal;font-variant-numeric:normal;font-variant-alternates:normal;font-variant-east-asian:normal;font-feature-settings:normal;font-variation-settings:normal;text-indent:0;text-align:start;text-decoration:none;text-decoration-line:none;text-decoration-style:solid;text-decoration-color:#000000;letter-spacing:normal;word-spacing:normal;text-transform:none;writing-mode:lr-tb;direction:ltr;text-orientation:mixed;dominant-baseline:auto;baseline-shift:baseline;text-anchor:start;white-space:normal;shape-padding:0;shape-margin:0;inline-size:0;clip-rule:nonzero;display:inline;overflow:visible;visibility:visible;isolation:auto;mix-blend-mode:normal;color-interpolation:sRGB;color-interpolation-filters:linearRGB;solid-color:#000000;solid-opacity:1;vector-effect:none;fill:#ff00ff;fill-opacity:1;fill-rule:nonzero;stroke:none;stroke-width:1;stroke-linecap:butt;stroke-linejoin:miter;stroke-miterlimit:4;stroke-dasharray:none;stroke-dashoffset:0;stroke-opacity:1;color-rendering:auto;image-rendering:auto;shape-rendering:auto;text-rendering:auto;enable-background:accumulate;stop-color:#000000;stop-opacity:1" />
          <path
             id="path402"
             d="m 12.609375,37.003906 v 0.585938 2.162109 l 0.558594,-0.06445 c 0.33861,-0.03984 0.655537,-0.164093 0.896484,-0.390625 0.240948,-0.226532 0.384766,-0.56125 0.384766,-0.90625 0,-0.348788 -0.154318,-0.68444 -0.394531,-0.904297 -0.240214,-0.219856 -0.542833,-0.339041 -0.865235,-0.390625 z"
             style="color:#000000;font-style:normal;font-variant:normal;font-weight:normal;font-stretch:normal;font-size:medium;line-height:normal;font-family:sans-serif;font-variant-ligatures:normal;font-variant-position:normal;font-variant-caps:normal;font-variant-numeric:normal;font-variant-alternates:normal;font-variant-east-asian:normal;font-feature-settings:normal;font-variation-settings:normal;text-indent:0;text-align:start;text-decoration:none;text-decoration-line:none;text-decoration-style:solid;text-decoration-color:#000000;letter-spacing:normal;word-spacing:normal;text-transform:none;writing-mode:lr-tb;direction:ltr;text-orientation:mixed;dominant-baseline:auto;baseline-shift:baseline;text-anchor:start;white-space:normal;shape-padding:0;shape-margin:0;inline-size:0;clip-rule:nonzero;display:inline;overflow:visible;visibility:visible;isolation:auto;mix-blend-mode:normal;color-interpolation:sRGB;color-interpolation-filters:linearRGB;solid-color:#000000;solid-opacity:1;vector-effect:none;fill-opacity:1;fill-rule:nonzero;stroke:none;stroke-width:1;stroke-linecap:butt;stroke-linejoin:miter;stroke-miterlimit:4;stroke-dasharray:none;stroke-dashoffset:0;stroke-opacity:1;color-rendering:auto;image-rendering:auto;shape-rendering:auto;text-rendering:auto;enable-background:accumulate;stop-color:#000000;stop-opacity:1;fill:#ff00ff" />
        </g>
        <g
           style="opacity:1;fill:#ff00ff"
           id="g404">
          <path
             id="path406"
             d="m 12.73,13.15 v 0 c 1.253333,0 1.253333,-1.88 0,-1.88 v 0 c -1.075372,-0.157276 -1.075372,2.037276 0,1.88 z"
             style="color:#000000;font-style:normal;font-variant:normal;font-weight:normal;font-stretch:normal;font-size:medium;line-height:normal;font-family:sans-serif;font-variant-ligatures:normal;font-variant-position:normal;font-variant-caps:normal;font-variant-numeric:normal;font-variant-alternates:normal;font-variant-east-asian:normal;font-feature-settings:normal;font-variation-settings:normal;text-indent:0;text-align:start;text-decoration:none;text-decoration-line:none;text-decoration-style:solid;text-decoration-color:#000000;letter-spacing:normal;word-spacing:normal;text-transform:none;writing-mode:lr-tb;direction:ltr;text-orientation:mixed;dominant-baseline:auto;baseline-shift:baseline;text-anchor:start;white-space:normal;shape-padding:0;shape-margin:0;inline-size:0;clip-rule:nonzero;display:inline;overflow:visible;visibility:visible;isolation:auto;mix-blend-mode:normal;color-interpolation:sRGB;color-interpolation-filters:linearRGB;solid-color:#000000;solid-opacity:1;vector-effect:none;fill:#ff00ff;fill-opacity:1;fill-rule:nonzero;stroke:none;stroke-width:1;stroke-linecap:butt;stroke-linejoin:miter;stroke-miterlimit:4;stroke-dasharray:none;stroke-dashoffset:0;stroke-opacity:1;color-rendering:auto;image-rendering:auto;shape-rendering:auto;text-rendering:auto;enable-background:accumulate;stop-color:#000000;stop-opacity:1" />
          <path
             id="path408"
             d="m 12.773438,10.787109 c -0.421275,-0.04733 -0.836232,0.144438 -1.050782,0.433594 -0.220504,0.297182 -0.298828,0.6476 -0.298828,0.990235 0,0.342634 0.07832,0.691099 0.298828,0.988281 0.21455,0.289156 0.629507,0.480927 1.050782,0.433593 0.417329,-0.01372 0.796676,-0.177022 1.035156,-0.445312 0.248303,-0.279341 0.361328,-0.630451 0.361328,-0.976562 0,-0.346112 -0.113025,-0.699175 -0.361328,-0.978516 -0.23848,-0.26829 -0.617827,-0.431592 -1.035156,-0.445313 z m -0.115235,0.978516 0.03516,0.0039 h 0.03711 c 0.188333,0 0.265048,0.05379 0.330078,0.126953 0.06503,0.07316 0.109375,0.190565 0.109375,0.314454 0,0.123888 -0.04434,0.23934 -0.109375,0.3125 -0.06503,0.07316 -0.141745,0.126953 -0.330078,0.126953 h -0.03711 l -0.03516,0.0039 c -0.104095,0.01522 -0.08252,0.01437 -0.130859,-0.05078 -0.04834,-0.06515 -0.103516,-0.225894 -0.103516,-0.392578 0,-0.166685 0.05518,-0.327431 0.103516,-0.392579 0.04834,-0.06515 0.02676,-0.06796 0.130859,-0.05273 z"
             style="color:#000000;font-style:normal;font-variant:normal;font-weight:normal;font-stretch:normal;font-size:medium;line-height:normal;font-family:sans-serif;font-variant-ligatures:normal;font-variant-position:normal;font-variant-caps:normal;font-variant-numeric:normal;font-variant-alternates:normal;font-variant-east-asian:normal;font-feature-settings:normal;font-variation-settings:normal;text-indent:0;text-align:start;text-decoration:none;text-decoration-line:none;text-decoration-style:solid;text-decoration-color:#000000;letter-spacing:normal;word-spacing:normal;text-transform:none;writing-mode:lr-tb;direction:ltr;text-orientation:mixed;dominant-baseline:auto;baseline-shift:baseline;text-anchor:start;white-space:normal;shape-padding:0;shape-margin:0;inline-size:0;clip-rule:nonzero;display:inline;overflow:visible;visibility:visible;isolation:auto;mix-blend-mode:normal;color-interpolation:sRGB;color-interpolation-filters:linearRGB;solid-color:#000000;solid-opacity:1;vector-effect:none;fill-opacity:1;fill-rule:nonzero;stroke:none;stroke-width:1;stroke-linecap:butt;stroke-linejoin:miter;stroke-miterlimit:4;stroke-dasharray:none;stroke-dashoffset:0;stroke-opacity:1;color-rendering:auto;image-rendering:auto;shape-rendering:auto;text-rendering:auto;enable-background:accumulate;stop-color:#000000;stop-opacity:1;fill:#ff00ff" />
        </g>
        <g
           style="opacity:1;fill:#ff00ff"
           id="g410">
          <path
             id="path412"
             d="m 13.39,7.24 v 0 C 14.261557,7.2738275 14.989402,6.5821486 15,5.71 14.995501,4.8477322 14.271068,4.1643046 13.41,4.21 v 0 c -0.867694,-0.033764 -1.59385,0.6517994 -1.61,1.52 -0.0012,0.8662183 0.724997,1.5558933 1.59,1.51 z"
             style="color:#000000;font-style:normal;font-variant:normal;font-weight:normal;font-stretch:normal;font-size:medium;line-height:normal;font-family:sans-serif;font-variant-ligatures:normal;font-variant-position:normal;font-variant-caps:normal;font-variant-numeric:normal;font-variant-alternates:normal;font-variant-east-asian:normal;font-feature-settings:normal;font-variation-settings:normal;text-indent:0;text-align:start;text-decoration:none;text-decoration-line:none;text-decoration-style:solid;text-decoration-color:#000000;letter-spacing:normal;word-spacing:normal;text-transform:none;writing-mode:lr-tb;direction:ltr;text-orientation:mixed;dominant-baseline:auto;baseline-shift:baseline;text-anchor:start;white-space:normal;shape-padding:0;shape-margin:0;inline-size:0;clip-rule:nonzero;display:inline;overflow:visible;visibility:visible;isolation:auto;mix-blend-mode:normal;color-interpolation:sRGB;color-interpolation-filters:linearRGB;solid-color:#000000;solid-opacity:1;vector-effect:none;fill:#ff00ff;fill-opacity:1;fill-rule:nonzero;stroke:none;stroke-width:1;stroke-linecap:butt;stroke-linejoin:miter;stroke-miterlimit:4;stroke-dasharray:none;stroke-dashoffset:0;stroke-opacity:1;color-rendering:auto;image-rendering:auto;shape-rendering:auto;text-rendering:auto;enable-background:accumulate;stop-color:#000000;stop-opacity:1" />
          <path
             id="path414"
             d="M 13.40625,3.71875 C 12.276575,3.689418 11.321859,4.5876271 11.300781,5.7207031 v 0.00391 0.00391 c -0.0016,1.137136 0.958941,2.0489929 2.091797,2.0039063 1.135487,0.030449 2.093583,-0.8768015 2.107422,-2.015625 v -0.00586 -0.00391 C 15.494094,4.5750085 14.534045,3.6738405 13.40625,3.71875 Z m -0.01563,0.9902344 0.02344,0.00195 0.02149,-0.00195 c 0.580546,-0.030809 1.055821,0.4177201 1.0625,0.9980468 -0.0098,0.5949323 -0.492644,1.0563063 -1.087891,1.0332032 h -0.02344 -0.02344 c -0.583309,0.030948 -1.057691,-0.420793 -1.060547,-1.0039063 0.01356,-0.5921254 0.495384,-1.0503994 1.087891,-1.0273437 z"
             style="color:#000000;font-style:normal;font-variant:normal;font-weight:normal;font-stretch:normal;font-size:medium;line-height:normal;font-family:sans-serif;font-variant-ligatures:normal;font-variant-position:normal;font-variant-caps:normal;font-variant-numeric:normal;font-variant-alternates:normal;font-variant-east-asian:normal;font-feature-settings:normal;font-variation-settings:normal;text-indent:0;text-align:start;text-decoration:none;text-decoration-line:none;text-decoration-style:solid;text-decoration-color:#000000;letter-spacing:normal;word-spacing:normal;text-transform:none;writing-mode:lr-tb;direction:ltr;text-orientation:mixed;dominant-baseline:auto;baseline-shift:baseline;text-anchor:start;white-space:normal;shape-padding:0;shape-margin:0;inline-size:0;clip-rule:nonzero;display:inline;overflow:visible;visibility:visible;isolation:auto;mix-blend-mode:normal;color-interpolation:sRGB;color-interpolation-filters:linearRGB;solid-color:#000000;solid-opacity:1;vector-effect:none;fill-opacity:1;fill-rule:nonzero;stroke:none;stroke-width:1;stroke-linecap:butt;stroke-linejoin:miter;stroke-miterlimit:4;stroke-dasharray:none;stroke-dashoffset:0;stroke-opacity:1;color-rendering:auto;image-rendering:auto;shape-rendering:auto;text-rendering:auto;enable-background:accumulate;stop-color:#000000;stop-opacity:1;fill:#ff00ff" />
        </g>
        <g
           style="opacity:1;fill:#ff00ff"
           id="g416">
          <path
             id="path418"
             d="M 0,0 V 42.84 H 18.42 V 0 Z m 13.39,2.52 v 0 c 1.757428,-9.087e-4 3.166509,1.4534802 3.11,3.21 0.068,1.7437662 -1.324914,3.1956593 -3.07,3.2 v 0 C 11.678856,8.9140634 10.283799,7.4603149 10.34,5.71 10.278028,3.9779121 11.656876,2.5357735 13.39,2.52 Z m 3,23.76 V 28 h -5.95 v -1.61 h 3.41 l -2.33,-1.53 v 0 l 2.31,-1.51 H 10.44 V 21.7 h 5.94 v 1.74 l -2.3,1.42 z m -3.63,6.64 v 0 c -0.541567,-0.02879 -1.007378,0.379345 -1.05,0.92 0.0076,0.353869 0.186611,0.682 0.48,0.88 l -0.78,1.08 c -0.684223,-0.430387 -1.08796,-1.192155 -1.06,-2 -0.01687,-1.328486 1.061455,-2.411319 2.39,-2.4 v 0 c 1.351715,-0.0062 2.439605,1.108851 2.4,2.46 0.05999,0.79987 -0.324107,1.568073 -1,2 l -0.82,-1.1 c 0.303699,-0.180064 0.489938,-0.506933 0.49,-0.86 -0.01035,-0.56867 -0.492266,-1.01422 -1.06,-0.98 z M 10.45,30.64 V 29 H 15 v 1.62 z m 0,-9.93 V 19.09 H 15 v 1.62 z M 15,18.36 h -1.3 v -1.07 h -1.52 c -0.33,0 -0.46,0.15 -0.46,0.44 0.0045,0.211894 0.05572,0.420183 0.15,0.61 h -1.26 c -0.188806,-0.342367 -0.282063,-0.72921 -0.27,-1.12 -0.145296,-0.895526 0.622651,-1.673578 1.52,-1.54 h 1.87 V 15.13 H 15 v 0.55 h 1.2 v 1.61 H 15 Z M 7.88,23.13 H 1.94 v -1.66 h 5.94 z m 0,-2.78 H 1.94 v -1.66 h 5.94 z m 0,-8.6 H 5.47 l 2.41,2.05 v 1.95 L 5.33,13.5 1.94,15.83 v -2 l 2.21,-1.5 -0.68,-0.6 H 1.94 V 10.1 h 5.94 z m 0,-7.29 -2.3,1.42 2.3,1.42 V 9.05 H 1.94 V 7.4 H 5.35 L 3,5.88 v 0 L 5.33,4.34 H 1.94 V 2.72 h 5.94 z m 1.2,5.23 H 15 v 1.62 h -0.61 c 0.45439,0.316378 0.723717,0.836329 0.72,1.39 -0.07821,1.223199 -1.161608,2.133619 -2.38,2 v 0 c -1.227661,0.145875 -2.327059,-0.766488 -2.41,-2 -0.01351,-0.546982 0.235549,-1.067398 0.67,-1.4 H 9.08 Z m 3.54,31 h -0.33 v -3.08 c -0.457183,0.112816 -0.773714,0.529303 -0.76,1 0.01294,0.383674 0.182855,0.745204 0.47,1 l -0.74,0.89 c -0.618536,-0.475258 -0.968797,-1.220495 -0.94,-2 -0.08984,-1.366264 1.021712,-2.510369 2.39,-2.46 v 0 c 1.318592,-0.05715 2.416952,1.000188 2.41,2.32 0.04968,1.377139 -1.129149,2.48052 -2.5,2.34 z m 4,-10 H 15.45 V 29 h 1.19 z m 0,-9.93 h -1.17 v -1.7 h 1.19 z"
             style="color:#000000;font-style:normal;font-variant:normal;font-weight:normal;font-stretch:normal;font-size:medium;line-height:normal;font-family:sans-serif;font-variant-ligatures:normal;font-variant-position:normal;font-variant-caps:normal;font-variant-numeric:normal;font-variant-alternates:normal;font-variant-east-asian:normal;font-feature-settings:normal;font-variation-settings:normal;text-indent:0;text-align:start;text-decoration:none;text-decoration-line:none;text-decoration-style:solid;text-decoration-color:#000000;letter-spacing:normal;word-spacing:normal;text-transform:none;writing-mode:lr-tb;direction:ltr;text-orientation:mixed;dominant-baseline:auto;baseline-shift:baseline;text-anchor:start;white-space:normal;shape-padding:0;shape-margin:0;inline-size:0;clip-rule:nonzero;display:inline;overflow:visible;visibility:visible;isolation:auto;mix-blend-mode:normal;color-interpolation:sRGB;color-interpolation-filters:linearRGB;solid-color:#000000;solid-opacity:1;vector-effect:none;fill:#ff00ff;fill-opacity:1;fill-rule:nonzero;stroke:none;stroke-width:1;stroke-linecap:butt;stroke-linejoin:miter;stroke-miterlimit:4;stroke-dasharray:none;stroke-dashoffset:0;stroke-opacity:1;color-rendering:auto;image-rendering:auto;shape-rendering:auto;text-rendering:auto;enable-background:accumulate;stop-color:#000000;stop-opacity:1" />
          <path
             id="path420"
             d="M -0.5,-0.5 V 0 43.339844 H 18.919922 V -0.5 Z m 1,1 H 17.919922 V 42.339844 H 0.5 Z M 13.384766,2.0195312 C 11.382972,2.03775 9.7825906,3.7123659 9.84375,5.7109375 9.8000225,7.3310722 10.85329,8.6905347 12.310547,9.1894531 H 8.5800781 v 0.5 2.1113279 h 1.6757809 c -0.150697,0.312119 -0.4443335,0.556272 -0.4355465,0.91211 v 0.0098 0.01172 c 0.1001925,1.490075 1.4315155,2.584105 2.9101565,2.445313 6.7e-4,-6.3e-5 0.0013,6.3e-5 0.002,0 0.186468,0.01593 0.318981,-0.130032 0.498047,-0.152344 v 0.152344 h -0.498047 c 0.02122,-0.002 0.03536,0.02011 0.05664,0.01758 h -0.113281 c 0.02063,0.0023 0.03412,-0.01935 0.05469,-0.01758 h -0.871094 l 0.07422,0.0059 c -1.206124,-0.179542 -2.2488995,0.883056 -2.0781252,2.083984 -0.0026,0.45737 0.095177,0.91134 0.3164062,1.3125 l 0.0039,0.0078 H 9.9492188 v 2.609375 h -0.00977 v 2.65039 H 12.15234 l -1.544922,1.009766 1.570312,1.03125 H 9.9394531 V 28.5 h 0.00977 v 2.642578 l 0.5039059,-0.002 1.728516,-0.0078 c -1.294655,0.285251 -2.3411526,1.287081 -2.3281251,2.666016 -0.026418,0.923617 0.4353041,1.772569 1.1816401,2.306641 -0.755887,0.53979 -1.2657206,1.399369 -1.2109369,2.398437 -0.027253,0.932591 0.3903339,1.823588 1.1308589,2.392578 l 0.38086,0.292969 0.453124,-0.544922 v 0.544922 h 0.705079 l 0.07422,0.0078 c 1.65843,0.169998 3.099065,-1.175899 3.048829,-2.839844 0.0026,-0.907597 -0.481077,-1.624934 -1.148438,-2.140625 0.774442,-0.53235 1.223014,-1.422664 1.164062,-2.363281 0.02928,-1.404882 -1.03008,-2.442416 -2.353515,-2.726563 l 1.669922,-0.0078 v 0.07031 h 2.164062 l 0.0059,-0.494141 L 17.146484,28.5 H 16.890625 V 26 l -0.238281,-0.146484 -1.619141,-0.994141 1.847656,-1.140625 v -2.458984 h 0.232422 l 0.0059,-0.494141 0.02734,-2.205078 H 15.5 v -0.201172 -0.570313 h 1.199219 V 15.179688 H 15.5 v -0.548829 h -0.974609 c 0.597988,-0.448801 1.032613,-1.094988 1.083984,-1.898437 v -0.01563 -0.01367 c 0.0021,-0.314915 -0.09019,-0.612782 -0.214844,-0.892578 H 15.5 V 9.1894531 H 14.574219 C 16.014766,8.6889881 17.050408,7.3350084 16.996094,5.7285156 17.050811,3.704485 15.417788,2.018483 13.390625,2.0195312 h -0.0039 z M 1.4394531,2.2207031 V 4.8398438 H 3.6679688 L 2.0859375,5.8847656 3.65625,6.9003906 H 1.4394531 V 9.5507812 H 8.3808594 V 7.0214844 L 6.53125,5.8789062 8.3808594,4.7382812 V 4.4609375 2.2207031 Z M 13.392578,3.0195312 C 14.873089,3.0198376 16.047614,4.2348286 16,5.7148438 V 5.7324219 5.75 C 16.05719,7.2166569 14.899133,8.4249639 13.431641,8.4296875 11.955696,8.4151933 10.792466,7.202083 10.839844,5.7265625 V 5.7089845 5.6914065 C 10.787724,4.2347251 11.935301,3.0338578 13.392578,3.0195312 Z M 2.4394531,3.2207031 H 7.3808594 V 4.1816406 L 4.6289062,5.8808594 7.3808594,7.578125 V 8.5507812 H 2.4394531 V 7.9003906 H 7.0429688 L 3.9121094,5.875 6.9941406,3.8398438 H 2.4394531 Z m -1,6.3789063 V 12.230469 H 3.28125 l 0.054687,0.04687 -1.8964844,1.287109 v 3.216797 l 3.8515625,-2.648438 3.0898438,2.72461 V 13.568359 L 6.8300781,12.25 h 1.5507813 v -0.5 -2.1503906 z m 8.140625,0.5898436 H 14.5 v 0.621094 h -1.703125 l 1.306641,0.910156 c 0.315796,0.21988 0.498087,0.580655 0.5,0.964844 -0.07119,0.934793 -0.883512,1.620101 -1.81836,1.517578 l -0.05664,-0.0059 -0.05664,0.0059 c -0.945615,0.112362 -1.776102,-0.577864 -1.847656,-1.525391 -0.006,-0.383423 0.163899,-0.747084 0.46875,-0.980468 l 1.171875,-0.896485 H 9.5800781 Z m -7.140625,0.410156 H 7.3808594 V 11.25 H 4.1113281 l 3.2695313,2.78125 v 0.611328 l -2.0117188,-1.77539 -2.9296875,2.013671 v -0.785156 l 2.5253907,-1.714844 -1.3066407,-1.15039 h -1.21875 z m 11.7910159,5.03125 H 14.5 v 0.548829 h 1.199219 v 0.609374 H 14.5 v 1.070313 h -0.300781 v -1.070313 h -2.019531 c -0.240758,0 -0.509438,0.06022 -0.707032,0.257813 -0.197593,0.197594 -0.251953,0.463881 -0.251953,0.683594 v 0.0039 0.0059 c 7.33e-4,0.03451 0.02087,0.06528 0.02344,0.09961 h -0.259766 c -0.07056,-0.197246 -0.151044,-0.392522 -0.144531,-0.603516 l 0.002,-0.04883 -0.0078,-0.04687 c -0.09336,-0.575416 0.376538,-1.052627 0.953125,-0.966797 l 0.03516,0.0059 h 2.408203 z m -1.992188,2.158203 h 0.960938 v 0.800782 h -0.646485 l -0.234375,-0.472656 c -0.05068,-0.102026 -0.06885,-0.215175 -0.08008,-0.328126 z M 1.4394531,18.189453 v 2.660156 h 6.9414063 v -0.5 -2.160156 z m 1,1 h 4.9414063 v 0.660156 H 2.4394531 Z m 13.5097659,0.371094 h 0.185547 l -0.0098,0.699219 h -0.175781 z m -5,0.0293 H 14.5 v 0.621094 h -3.550781 z m -9.5097659,1.380859 v 2.660156 h 6.9414063 v -0.5 -2.160156 z m 1,1 h 4.9414063 v 0.660156 H 2.4394531 Z m 8.4999999,0.228516 h 4.941406 v 0.960937 l -2.753906,1.701172 2.763672,1.697266 V 27.5 h -4.951172 v -0.609375 h 4.582031 l -3.08789,-2.029297 3.074218,-2.011719 H 10.939453 Z M 10.949219,29.5 H 14.5 v 0.623047 l -3.550781,0.01563 z m 5,0 h 0.185547 l -0.0098,0.689453 h -0.175781 z m -3.210938,1.400391 h 0.0059 c -0.0016,-1.4e-5 -0.0023,0.002 -0.0039,0.002 -9.23e-4,3e-6 -10e-4,-0.002 -0.002,-0.002 z m -0.002,1 h 0.002 0.0039 c 1.075505,-0.005 1.929949,0.870257 1.898437,1.945312 l -0.002,0.02539 0.002,0.02539 c 0.03235,0.431257 -0.275333,0.751547 -0.537109,1.078125 L 13.87304,34.666015 c 0.175569,-0.249108 0.437445,-0.451495 0.4375,-0.765625 v -0.0059 -0.0039 c -0.01493,-0.820909 -0.711096,-1.453014 -1.523438,-1.445313 v -0.02539 c -0.01037,-5.51e-4 -0.01701,0.0101 -0.02734,0.0098 v -0.0098 H 12.75 v 0.01172 c -0.01106,4.19e-4 -0.0182,-0.01044 -0.0293,-0.0098 v 0.02148 c -0.775062,-0.0021 -1.448242,0.576993 -1.509765,1.357422 l -0.002,0.02539 0.002,0.02539 c 0.0068,0.313977 0.252407,0.529051 0.425781,0.78125 l -0.205078,0.283204 c -0.277667,-0.330181 -0.597412,-0.655222 -0.582032,-1.09961 v -0.01172 -0.01172 c -0.01339,-1.054539 0.832133,-1.901563 1.886719,-1.892578 z m 0.0332,1.173828 0.0098,0.345703 c 0.288904,-0.01741 0.519438,0.197816 0.527344,0.486328 -0.0026,0.174345 -0.09185,0.334692 -0.242188,0.423828 l -0.296875,0.175781 -0.298828,-0.201171 c -0.148173,-0.1 -0.226538,-0.2649 -0.242188,-0.441407 0.03421,-0.261321 0.240885,-0.457551 0.507813,-0.443359 l 0.0078,-0.285156 0.0078,0.285156 h 0.0098 z m -0.03125,1.740234 0.775391,1.039063 c -0.284966,-0.08488 -0.499371,-0.318435 -0.8125,-0.306641 -0.198942,-0.0053 -0.374398,0.06488 -0.5625,0.09961 z m -0.04687,1.724609 0.01953,0.002 0.02148,-0.002 c 1.040052,-0.04508 1.892202,0.777346 1.886719,1.81836 v 0.0098 l 0.002,0.01172 c 0.03742,1.037196 -0.814375,1.81463 -1.832032,1.785156 V 36.970703 L 12.169922,37.125 c -0.682964,0.16853 -1.161111,0.796849 -1.140625,1.5 l 0.002,0.002 c 0.01129,0.334846 0.236863,0.59345 0.410156,0.873047 l -0.101562,0.123047 C 11.093448,39.282178 10.804434,38.94872 10.820359,38.517625 v -0.02539 l -0.002,-0.02539 c -0.07092,-1.078589 0.792861,-1.967498 1.873047,-1.927735 z"
             style="color:#000000;font-style:normal;font-variant:normal;font-weight:normal;font-stretch:normal;font-size:medium;line-height:normal;font-family:sans-serif;font-variant-ligatures:normal;font-variant-position:normal;font-variant-caps:normal;font-variant-numeric:normal;font-variant-alternates:normal;font-variant-east-asian:normal;font-feature-settings:normal;font-variation-settings:normal;text-indent:0;text-align:start;text-decoration:none;text-decoration-line:none;text-decoration-style:solid;text-decoration-color:#000000;letter-spacing:normal;word-spacing:normal;text-transform:none;writing-mode:lr-tb;direction:ltr;text-orientation:mixed;dominant-baseline:auto;baseline-shift:baseline;text-anchor:start;white-space:normal;shape-padding:0;shape-margin:0;inline-size:0;clip-rule:nonzero;display:inline;overflow:visible;visibility:visible;isolation:auto;mix-blend-mode:normal;color-interpolation:sRGB;color-interpolation-filters:linearRGB;solid-color:#000000;solid-opacity:1;vector-effect:none;fill-opacity:1;fill-rule:nonzero;stroke:none;stroke-width:1;stroke-linecap:butt;stroke-linejoin:miter;stroke-miterlimit:4;stroke-dasharray:none;stroke-dashoffset:0;stroke-opacity:1;color-rendering:auto;image-rendering:auto;shape-rendering:auto;text-rendering:auto;enable-background:accumulate;stop-color:#000000;stop-opacity:1;fill:#ff00ff" />
        </g>
      </g>
    </g>
  </g>
</svg>
