<svg xmlns="http://www.w3.org/2000/svg" viewBox="0 0 211.12 83.21"><defs><style>.cls-1{fill:#fff;}</style></defs><g id="Layer_2" data-name="Layer 2"><g id="Layer_1-2" data-name="Layer 1"><path class="cls-1" d="M32.48,59.5a1.88,1.88,0,0,0-.67-.48,2.06,2.06,0,0,0-2.33.49,2.46,2.46,0,0,0-.47.74,2.55,2.55,0,0,0-.17,1,2.49,2.49,0,0,0,.17,1,2.39,2.39,0,0,0,.47.75,2.23,2.23,0,0,0,.69.49,2.18,2.18,0,0,0,1.64,0,2,2,0,0,0,.67-.48,2.16,2.16,0,0,0,.46-.75,2.94,2.94,0,0,0,0-2A2.16,2.16,0,0,0,32.48,59.5Z"/><path class="cls-1" d="M17.67,9c-5,0-8.32,4-8.32,8.78v.1c0,4.75,3.43,8.88,8.41,8.88s8.37-4,8.37-8.79v-.09C26.13,13.11,22.7,9,17.67,9Z"/><path class="cls-1" d="M41.06,59.34a2,2,0,0,0-.57-.42,1.79,1.79,0,0,0-.75-.15,1.7,1.7,0,0,0-1.29.54,2.49,2.49,0,0,0-.63,1.41h3.8a3.21,3.21,0,0,0-.18-.77A2.1,2.1,0,0,0,41.06,59.34Z"/><path class="cls-1" d="M53.58,27.4c2.91,0,5.22-2.35,5.22-5.78v-.1c0-3.33-2.31-5.73-5.22-5.73s-5.17,2.4-5.17,5.73v.1C48.41,25,50.71,27.4,53.58,27.4Z"/><path class="cls-1" d="M57.32,63a2.14,2.14,0,0,0,.45-.75,2.94,2.94,0,0,0,0-2,2.14,2.14,0,0,0-.45-.75,2,2,0,0,0-.67-.48,2.08,2.08,0,0,0-.82-.17A2.12,2.12,0,0,0,55,59a1.94,1.94,0,0,0-.68.49,2.28,2.28,0,0,0-.47.74,2.55,2.55,0,0,0-.18,1,2.48,2.48,0,0,0,.18,1,2.22,2.22,0,0,0,.47.75,2.08,2.08,0,0,0,.68.49,2.12,2.12,0,0,0,.83.16,2.07,2.07,0,0,0,.82-.16A2.11,2.11,0,0,0,57.32,63Z"/><path class="cls-1" d="M60.24,75.58a2.24,2.24,0,0,0-2.54-.52,2.07,2.07,0,0,0-.7.51,2.16,2.16,0,0,0-.44.75,2.49,2.49,0,0,0-.16.91,2.7,2.7,0,0,0,.17.94,2.37,2.37,0,0,0,.47.76,2.3,2.3,0,0,0,.71.51,2,2,0,0,0,.89.19,2.15,2.15,0,0,0,.93-.19,2.26,2.26,0,0,0,.7-.51,2.38,2.38,0,0,0,.45-.75,2.73,2.73,0,0,0,.15-.92,2.59,2.59,0,0,0-.17-.92A2.24,2.24,0,0,0,60.24,75.58Z"/><path class="cls-1" d="M65.85,63.44a2.3,2.3,0,0,0,.71-.51,2.35,2.35,0,0,0,.44-.75,2.73,2.73,0,0,0,.15-.92,2.58,2.58,0,0,0-.16-.92,2.27,2.27,0,0,0-.47-.76,2.14,2.14,0,0,0-.71-.52,2.27,2.27,0,0,0-1.82,0,1.89,1.89,0,0,0-.7.51,2,2,0,0,0-.45.75,2.71,2.71,0,0,0-.15.91,2.49,2.49,0,0,0,.17.94,2.34,2.34,0,0,0,.46.76,2.43,2.43,0,0,0,.71.51,2,2,0,0,0,.9.19A2.1,2.1,0,0,0,65.85,63.44Z"/><path class="cls-1" d="M69.61,75.5a1.88,1.88,0,0,0-.67-.48,2.08,2.08,0,0,0-.82-.17,2.16,2.16,0,0,0-.83.17,2,2,0,0,0-.68.49,2.46,2.46,0,0,0-.47.74,2.55,2.55,0,0,0-.17,1,2.49,2.49,0,0,0,.17,1,2.39,2.39,0,0,0,.47.75,2.19,2.19,0,0,0,.68.49,2.15,2.15,0,0,0,.83.16,2.07,2.07,0,0,0,.82-.16,2,2,0,0,0,.67-.48,2.16,2.16,0,0,0,.46-.75,2.94,2.94,0,0,0,0-2A2.16,2.16,0,0,0,69.61,75.5Z"/><path class="cls-1" d="M83.27,60a2.1,2.1,0,0,0-.38-.61,2,2,0,0,0-.57-.42,1.79,1.79,0,0,0-.75-.15,1.7,1.7,0,0,0-1.29.54,2.41,2.41,0,0,0-.62,1.41h3.79A3.21,3.21,0,0,0,83.27,60Z"/><path class="cls-1" d="M102.36,63.63a2.12,2.12,0,0,0,.93-.19,2.26,2.26,0,0,0,.7-.51,2.38,2.38,0,0,0,.45-.75,2.73,2.73,0,0,0,.15-.92,2.59,2.59,0,0,0-.17-.92,2.24,2.24,0,0,0-.46-.76,2.24,2.24,0,0,0-2.54-.52,2.07,2.07,0,0,0-.7.51,2.16,2.16,0,0,0-.44.75,2.49,2.49,0,0,0-.16.91,2.7,2.7,0,0,0,.17.94,2.37,2.37,0,0,0,.47.76,2.3,2.3,0,0,0,.71.51A2,2,0,0,0,102.36,63.63Z"/><path class="cls-1" d="M112.87,75.34a2,2,0,0,0-.57-.42,1.79,1.79,0,0,0-.75-.15,1.72,1.72,0,0,0-1.3.54,2.48,2.48,0,0,0-.62,1.41h3.79a2.48,2.48,0,0,0-.18-.77A2.07,2.07,0,0,0,112.87,75.34Z"/><path class="cls-1" d="M121.76,75.51a2.05,2.05,0,0,0-1.5-.66,2,2,0,0,0-.81.17,2,2,0,0,0-.68.46,2.36,2.36,0,0,0-.46.75,2.87,2.87,0,0,0-.17,1,2.78,2.78,0,0,0,.17,1,2.12,2.12,0,0,0,1.14,1.23,2,2,0,0,0,.81.16,2.05,2.05,0,0,0,.81-.16,2.23,2.23,0,0,0,.69-.49,2.36,2.36,0,0,0,.46-.75,2.48,2.48,0,0,0,.18-1,2.55,2.55,0,0,0-.18-1A2.43,2.43,0,0,0,121.76,75.51Z"/><path class="cls-1" d="M126.63,59.5A1.88,1.88,0,0,0,126,59a2.06,2.06,0,0,0-1.64,0,2,2,0,0,0-.69.49,2.46,2.46,0,0,0-.47.74,2.55,2.55,0,0,0-.17,1,2.49,2.49,0,0,0,.17,1,2.39,2.39,0,0,0,.47.75,2.12,2.12,0,0,0,.69.49,2.18,2.18,0,0,0,1.64,0,2,2,0,0,0,.67-.48,2.16,2.16,0,0,0,.46-.75,2.94,2.94,0,0,0,0-2A2.16,2.16,0,0,0,126.63,59.5Z"/><path class="cls-1" d="M149.8,60a2.1,2.1,0,0,0-.38-.61,2,2,0,0,0-.57-.42,1.79,1.79,0,0,0-.75-.15,1.7,1.7,0,0,0-1.29.54,2.49,2.49,0,0,0-.63,1.41H150A3.21,3.21,0,0,0,149.8,60Z"/><path class="cls-1" d="M198.34,14.9c-2.35,0-4,1.83-4.42,4.6h8.83C202.43,16.68,200.78,14.9,198.34,14.9Z"/><path class="cls-1" d="M206,59.34a2,2,0,0,0-.56-.42,1.79,1.79,0,0,0-.75-.15,1.7,1.7,0,0,0-1.3.54,2.41,2.41,0,0,0-.62,1.41h3.79a3.21,3.21,0,0,0-.18-.77A1.91,1.91,0,0,0,206,59.34Z"/><path class="cls-1" d="M197.24,75.58a2.14,2.14,0,0,0-.71-.52,2.09,2.09,0,0,0-.91-.19,2.06,2.06,0,0,0-.91.19,2,2,0,0,0-.71.51,2.16,2.16,0,0,0-.44.75,2.84,2.84,0,0,0,0,1.85,2.37,2.37,0,0,0,.47.76,2.3,2.3,0,0,0,.71.51,2,2,0,0,0,.9.19,2.1,2.1,0,0,0,.92-.19,2.26,2.26,0,0,0,.7-.51,2.21,2.21,0,0,0,.45-.75,2.73,2.73,0,0,0,.15-.92,2.58,2.58,0,0,0-.16-.92A2.44,2.44,0,0,0,197.24,75.58Z"/><path class="cls-1" d="M181.78,59.58a2.14,2.14,0,0,0-1.62-.71,2.09,2.09,0,0,0-.91.19,2,2,0,0,0-.7.51,2,2,0,0,0-.45.75,2.71,2.71,0,0,0-.15.91,2.49,2.49,0,0,0,.17.94,2.34,2.34,0,0,0,.46.76,2.43,2.43,0,0,0,.71.51,2.08,2.08,0,0,0,.9.19,2.1,2.1,0,0,0,.92-.19,2.3,2.3,0,0,0,.71-.51,2.35,2.35,0,0,0,.44-.75,2.73,2.73,0,0,0,.16-.92,2.59,2.59,0,0,0-.17-.92A2.27,2.27,0,0,0,181.78,59.58Z"/><path class="cls-1" d="M170.13,75.58a2.14,2.14,0,0,0-1.62-.71,2.12,2.12,0,0,0-.91.19,2,2,0,0,0-.7.51,2.34,2.34,0,0,0-.45.75,2.76,2.76,0,0,0,0,1.85,2.53,2.53,0,0,0,.46.76,2.43,2.43,0,0,0,.71.51,2.11,2.11,0,0,0,.9.19,2.18,2.18,0,0,0,.93-.19,2.38,2.38,0,0,0,.7-.51,2.35,2.35,0,0,0,.44-.75,2.51,2.51,0,0,0,.16-.92,2.59,2.59,0,0,0-.17-.92A2.27,2.27,0,0,0,170.13,75.58Z"/><path d="M17.76.75C7.61.75,0,8.41,0,17.86V18C0,27.4,7.52,35,17.67,35S35.44,27.3,35.44,17.86v-.1C35.44,8.32,27.92.75,17.76.75ZM26.13,18c0,4.75-3.34,8.79-8.37,8.79s-8.41-4.13-8.41-8.88v-.1C9.35,13,12.69,9,17.67,9s8.46,4.13,8.46,8.88Z"/><path d="M48.6,31.21a9.55,9.55,0,0,0,7.75,3.66c6,0,11.23-5,11.23-13.3v-.09c0-8.13-5.21-13.16-11.28-13.16-3.8,0-6,1.83-7.7,3.95V8.88H39.67V41.83H48.6Zm-.19-9.69c0-3.33,2.3-5.73,5.17-5.73s5.22,2.4,5.22,5.73v.1c0,3.43-2.31,5.78-5.22,5.78s-5.17-2.4-5.17-5.78Z"/><path d="M72.76,26.41c0,6.06,3.19,8.41,8.55,8.41a12.74,12.74,0,0,0,6.2-1.45v-7a7.92,7.92,0,0,1-3.38.84c-1.65,0-2.44-.75-2.44-2.54v-8.6h5.92V8.88H81.69V2.44H72.76V8.88h-3v7.19h3Z"/><rect x="91.46" width="9.31" height="6.58"/><rect x="91.65" y="8.88" width="8.93" height="25.43"/><polygon points="115.01 15.51 123.37 28.29 123.56 28.29 131.97 15.41 131.97 34.31 141.04 34.31 141.04 1.41 131.41 1.41 123.56 14.15 115.71 1.41 106.08 1.41 106.08 34.31 115.01 34.31 115.01 15.51"/><rect x="146.54" y="8.88" width="8.93" height="25.43"/><rect x="146.36" width="9.3" height="6.58"/><path d="M172.72,34.92c5.6,0,9-2.35,11.33-5.83l-6-4.32c-1.41,1.64-2.77,2.63-4.89,2.63-3,0-5.07-2.49-5.07-5.78v-.1c0-3.1,2.11-5.64,5-5.64a5.5,5.5,0,0,1,4.75,2.68l6.06-4.51c-2.16-3.43-5.64-5.68-10.86-5.68a13.21,13.21,0,0,0-13.63,13.25v.09A13.12,13.12,0,0,0,172.72,34.92Z"/><path d="M211.12,22.23c0-7.47-4-13.91-12.83-13.91-7.52,0-12.83,5.87-12.83,13.3v.09c0,7.9,5.64,13.21,13.63,13.21a13.3,13.3,0,0,0,11-5.17l-4.93-4.09a7.67,7.67,0,0,1-5.64,2.59,5.26,5.26,0,0,1-5.5-4.19h17C211.12,23.45,211.12,22.79,211.12,22.23Zm-17.2-2.73c.47-2.77,2.07-4.6,4.42-4.6s4.09,1.78,4.41,4.6Z"/><path d="M33.75,58.39a3.08,3.08,0,0,0-1.1-.75,3.28,3.28,0,0,0-1.27-.26,2.7,2.7,0,0,0-1.5.4,3.77,3.77,0,0,0-1,1V54.71H27.17V64.93h1.71l0-1.15a4,4,0,0,0,1,.91,2.71,2.71,0,0,0,1.51.39,3.32,3.32,0,0,0,1.28-.25,3.08,3.08,0,0,0,1.11-.75,3.64,3.64,0,0,0,.77-1.21,4.37,4.37,0,0,0,.28-1.64,4.16,4.16,0,0,0-.29-1.63A3.64,3.64,0,0,0,33.75,58.39Zm-.81,3.83a2.16,2.16,0,0,1-.46.75,2,2,0,0,1-.67.48,2.18,2.18,0,0,1-1.64,0,2.23,2.23,0,0,1-.69-.49,2.39,2.39,0,0,1-.47-.75,2.49,2.49,0,0,1-.17-1,2.55,2.55,0,0,1,.17-1,2.46,2.46,0,0,1,.47-.74A2.06,2.06,0,0,1,31.81,59a1.88,1.88,0,0,1,.67.48,2.16,2.16,0,0,1,.46.75,2.94,2.94,0,0,1,0,2Z"/><path d="M42.41,58.57a3.07,3.07,0,0,0-1.11-.86,3.42,3.42,0,0,0-1.54-.33,3.47,3.47,0,0,0-1.46.31,3.67,3.67,0,0,0-1.14.84,3.79,3.79,0,0,0-.75,1.22,4.16,4.16,0,0,0-.27,1.5,4,4,0,0,0,.3,1.57,3.5,3.5,0,0,0,.8,1.21,3.68,3.68,0,0,0,1.21.79,4.19,4.19,0,0,0,3.25-.1,4,4,0,0,0,1.26-1l-1-.88a3.55,3.55,0,0,1-.91.66,2.47,2.47,0,0,1-1.09.22,2.11,2.11,0,0,1-1.4-.48,2.19,2.19,0,0,1-.73-1.39h5.43a2.32,2.32,0,0,0,0-.24,1.77,1.77,0,0,0,0-.23,5.08,5.08,0,0,0-.23-1.52A3.88,3.88,0,0,0,42.41,58.57Zm-4.59,2.15a2.49,2.49,0,0,1,.63-1.41,1.7,1.7,0,0,1,1.29-.54,1.79,1.79,0,0,1,.75.15,2,2,0,0,1,.57.42,2.1,2.1,0,0,1,.38.61,3.21,3.21,0,0,1,.18.77Z"/><path d="M49.54,61.27a3.52,3.52,0,0,0-.74-.41c-.27-.12-.54-.21-.81-.3s-.42-.13-.62-.2-.38-.15-.54-.22a1.54,1.54,0,0,1-.37-.27.49.49,0,0,1-.14-.34v0A.62.62,0,0,1,46.6,59a1.21,1.21,0,0,1,.76-.21,3,3,0,0,1,1,.19,5,5,0,0,1,1.07.51l.68-1.21a5.24,5.24,0,0,0-1.31-.61,4.62,4.62,0,0,0-1.41-.23,3.17,3.17,0,0,0-1,.16,2.59,2.59,0,0,0-.84.44,2.09,2.09,0,0,0-.76,1.66v0a1.7,1.7,0,0,0,.21.89,2.1,2.1,0,0,0,.54.61,2.89,2.89,0,0,0,.74.39c.27.11.55.2.82.28l.62.19a2.93,2.93,0,0,1,.53.21,1.09,1.09,0,0,1,.37.28.52.52,0,0,1,.13.36v0a.68.68,0,0,1-.3.58,1.46,1.46,0,0,1-.85.22,3.48,3.48,0,0,1-1.19-.23,5,5,0,0,1-1.23-.68L44.4,64a5.26,5.26,0,0,0,1.52.83,4.93,4.93,0,0,0,1.62.28,3.81,3.81,0,0,0,1.08-.15,2.45,2.45,0,0,0,.87-.43,2,2,0,0,0,.58-.72,2.32,2.32,0,0,0,.21-1v0a1.66,1.66,0,0,0-.21-.86A2.14,2.14,0,0,0,49.54,61.27Z"/><path d="M57.49,64.83a3.13,3.13,0,0,0,1.1-.75,3.49,3.49,0,0,0,.77-1.21,4.75,4.75,0,0,0,0-3.27,3.82,3.82,0,0,0-.78-1.21,3,3,0,0,0-1.09-.75,3.33,3.33,0,0,0-1.28-.26,2.69,2.69,0,0,0-1.49.4,3.81,3.81,0,0,0-1,1V57.54H52v9.63h1.7V63.78a3.77,3.77,0,0,0,1,.91,2.77,2.77,0,0,0,1.52.39A3.39,3.39,0,0,0,57.49,64.83ZM55,63.45a2.08,2.08,0,0,1-.68-.49,2.22,2.22,0,0,1-.47-.75,2.48,2.48,0,0,1-.18-1,2.55,2.55,0,0,1,.18-1,2.28,2.28,0,0,1,.47-.74A1.94,1.94,0,0,1,55,59a2.12,2.12,0,0,1,.83-.17,2.08,2.08,0,0,1,.82.17,2,2,0,0,1,.67.48,2.14,2.14,0,0,1,.45.75,2.94,2.94,0,0,1,0,2,2.14,2.14,0,0,1-.45.75,2.11,2.11,0,0,1-.67.48,2.07,2.07,0,0,1-.82.16A2.12,2.12,0,0,1,55,63.45Z"/><path d="M66.48,64.79A3.79,3.79,0,0,0,67.74,64a4,4,0,0,0,.82-1.23,3.72,3.72,0,0,0,.3-1.5,3.81,3.81,0,0,0-1.11-2.72,4,4,0,0,0-2.82-1.13,4.08,4.08,0,0,0-1.58.31,4,4,0,0,0-1.24.84,3.87,3.87,0,0,0-.83,1.23,3.79,3.79,0,0,0-.3,1.5,3.88,3.88,0,0,0,.29,1.49A3.8,3.8,0,0,0,62.09,64a3.85,3.85,0,0,0,1.25.83,4,4,0,0,0,1.56.3A3.91,3.91,0,0,0,66.48,64.79Zm-3.16-1.86a2.34,2.34,0,0,1-.46-.76,2.49,2.49,0,0,1-.17-.94,2.71,2.71,0,0,1,.15-.91,2,2,0,0,1,.45-.75,1.89,1.89,0,0,1,.7-.51,2.27,2.27,0,0,1,1.82,0,2.14,2.14,0,0,1,.71.52,2.27,2.27,0,0,1,.47.76,2.58,2.58,0,0,1,.16.92,2.73,2.73,0,0,1-.15.92,2.35,2.35,0,0,1-.44.75,2.3,2.3,0,0,1-.71.51,2.1,2.1,0,0,1-.92.19,2,2,0,0,1-.9-.19A2.43,2.43,0,0,1,63.32,62.93Z"/><polygon points="75.56 64.93 77.52 64.93 74.48 60.55 77.42 57.54 75.36 57.54 72.29 60.81 72.29 54.71 70.58 54.71 70.58 64.93 72.29 64.93 72.29 62.82 73.33 61.74 75.56 64.93"/><path d="M84.79,63.71l-1-.88a3.55,3.55,0,0,1-.91.66,2.47,2.47,0,0,1-1.09.22,2.11,2.11,0,0,1-1.4-.48,2.24,2.24,0,0,1-.73-1.39H85.1a2.32,2.32,0,0,0,0-.24,1.77,1.77,0,0,0,0-.23,5.08,5.08,0,0,0-.22-1.52,3.72,3.72,0,0,0-.67-1.28,3.13,3.13,0,0,0-1.1-.86,3.47,3.47,0,0,0-1.55-.33,3.5,3.5,0,0,0-1.46.31,3.67,3.67,0,0,0-1.14.84,3.79,3.79,0,0,0-.75,1.22,4.38,4.38,0,0,0-.26,1.5,4,4,0,0,0,.29,1.57A3.53,3.53,0,0,0,79.08,64a3.63,3.63,0,0,0,1.2.79,4.19,4.19,0,0,0,3.25-.1A4,4,0,0,0,84.79,63.71Zm-4.51-4.4a1.7,1.7,0,0,1,1.29-.54,1.79,1.79,0,0,1,.75.15,2,2,0,0,1,.57.42,2.1,2.1,0,0,1,.38.61,3.21,3.21,0,0,1,.18.77H79.66A2.41,2.41,0,0,1,80.28,59.31Z"/><path d="M96.47,62.7a3.78,3.78,0,0,1-.86.67,2.13,2.13,0,0,1-1.06.26,2,2,0,0,1-.89-.19,2.15,2.15,0,0,1-.7-.51,2.34,2.34,0,0,1-.46-.76,2.61,2.61,0,0,1-.16-.94,2.49,2.49,0,0,1,.16-.91,2.32,2.32,0,0,1,.44-.75,2,2,0,0,1,.67-.51,1.93,1.93,0,0,1,.86-.19,2.11,2.11,0,0,1,1.08.26,3.93,3.93,0,0,1,.84.66l1-1.13a4.3,4.3,0,0,0-1.22-.93,3.91,3.91,0,0,0-5.3,2,4,4,0,0,0-.29,1.5,3.88,3.88,0,0,0,.29,1.49A3.62,3.62,0,0,0,91.73,64a3.68,3.68,0,0,0,1.21.83,3.87,3.87,0,0,0,1.53.3,3.64,3.64,0,0,0,1.78-.39,4.55,4.55,0,0,0,1.24-1Z"/><path d="M102.34,65.1a3.94,3.94,0,0,0,1.58-.31A3.84,3.84,0,0,0,106,62.73a3.88,3.88,0,0,0,0-3,3.54,3.54,0,0,0-.82-1.23,3.78,3.78,0,0,0-1.24-.82,3.91,3.91,0,0,0-1.58-.31,3.94,3.94,0,0,0-2.82,1.15,3.84,3.84,0,0,0-.82,1.23,3.79,3.79,0,0,0-.3,1.5,3.7,3.7,0,0,0,.29,1.49,3.83,3.83,0,0,0,2.06,2A4.1,4.1,0,0,0,102.34,65.1Zm-2-2.93a2.7,2.7,0,0,1-.17-.94,2.49,2.49,0,0,1,.16-.91,2.16,2.16,0,0,1,.44-.75,2.07,2.07,0,0,1,.7-.51,2.19,2.19,0,0,1,2.54.52,2.24,2.24,0,0,1,.46.76,2.59,2.59,0,0,1,.17.92,2.73,2.73,0,0,1-.15.92,2.38,2.38,0,0,1-.45.75,2.26,2.26,0,0,1-.7.51,2.12,2.12,0,0,1-.93.19,2,2,0,0,1-.89-.19,2.3,2.3,0,0,1-.71-.51A2.37,2.37,0,0,1,100.29,62.17Z"/><path d="M117.57,60.74v4.19h1.71V60.21a2.94,2.94,0,0,0-.69-2.09,2.49,2.49,0,0,0-1.91-.74,2.66,2.66,0,0,0-1.44.37,3.54,3.54,0,0,0-1.06,1,2.36,2.36,0,0,0-2.2-1.32,2.58,2.58,0,0,0-.76.11,2.36,2.36,0,0,0-.62.29,2.73,2.73,0,0,0-.48.41,4.54,4.54,0,0,0-.39.48V57.54H108v7.39h1.71V60.78a2,2,0,0,1,.43-1.35,1.44,1.44,0,0,1,1.14-.49,1.34,1.34,0,0,1,1.1.46,2,2,0,0,1,.39,1.33v4.2h1.71V60.77a1.92,1.92,0,0,1,.44-1.36,1.46,1.46,0,0,1,1.14-.47,1.36,1.36,0,0,1,1.1.46A2,2,0,0,1,117.57,60.74Z"/><path d="M127.9,58.39a3.08,3.08,0,0,0-1.1-.75,3.28,3.28,0,0,0-1.27-.26,2.7,2.7,0,0,0-1.5.4,3.77,3.77,0,0,0-1,1V57.54h-1.71v9.63H123l0-3.39a4,4,0,0,0,1,.91,2.71,2.71,0,0,0,1.51.39,3.32,3.32,0,0,0,1.28-.25,3.16,3.16,0,0,0,1.11-.75,3.64,3.64,0,0,0,.77-1.21,4.37,4.37,0,0,0,.28-1.64,4.16,4.16,0,0,0-.29-1.63A3.8,3.8,0,0,0,127.9,58.39Zm-.81,3.83a2.16,2.16,0,0,1-.46.75,2,2,0,0,1-.67.48,2.18,2.18,0,0,1-1.64,0,2.12,2.12,0,0,1-.69-.49,2.39,2.39,0,0,1-.47-.75,2.49,2.49,0,0,1-.17-1,2.55,2.55,0,0,1,.17-1,2.46,2.46,0,0,1,.47-.74,2,2,0,0,1,.69-.49A2.06,2.06,0,0,1,126,59a1.88,1.88,0,0,1,.67.48,2.16,2.16,0,0,1,.46.75,2.94,2.94,0,0,1,0,2Z"/><path d="M135.54,63.77v1.16h1.71V57.54h-1.71V61.7a1.9,1.9,0,0,1-.45,1.35,1.6,1.6,0,0,1-1.2.48,1.48,1.48,0,0,1-1.16-.47,2,2,0,0,1-.41-1.33V57.54h-1.7v4.7a3,3,0,0,0,.68,2.07,2.44,2.44,0,0,0,1.94.77,2.36,2.36,0,0,0,1.4-.38A3.61,3.61,0,0,0,135.54,63.77Z"/><path d="M143.4,64.68V63.29a2.32,2.32,0,0,1-1.05.25,1,1,0,0,1-.67-.21.92.92,0,0,1-.24-.71V59h2V57.54h-2v-2h-1.71v2h-.94V59h.94v3.9a3,3,0,0,0,.15,1,1.72,1.72,0,0,0,.45.67,1.65,1.65,0,0,0,.68.36,3,3,0,0,0,.86.12,3,3,0,0,0,1.53-.38Z"/><path d="M145.6,64a3.58,3.58,0,0,0,1.21.79,3.87,3.87,0,0,0,1.49.28,3.8,3.8,0,0,0,1.75-.38,4,4,0,0,0,1.27-1l-1-.88a3.55,3.55,0,0,1-.91.66,2.47,2.47,0,0,1-1.09.22,2.09,2.09,0,0,1-1.4-.48,2.19,2.19,0,0,1-.73-1.39h5.43a2.32,2.32,0,0,0,0-.24,1.77,1.77,0,0,0,0-.23,5.08,5.08,0,0,0-.23-1.52,3.88,3.88,0,0,0-.66-1.28,3.16,3.16,0,0,0-1.11-.86,3.42,3.42,0,0,0-1.54-.33,3.47,3.47,0,0,0-1.46.31,3.67,3.67,0,0,0-1.14.84,3.79,3.79,0,0,0-.75,1.22,4.16,4.16,0,0,0-.27,1.5,4,4,0,0,0,.3,1.57A3.5,3.5,0,0,0,145.6,64Zm1.21-4.72a1.7,1.7,0,0,1,1.29-.54,1.79,1.79,0,0,1,.75.15,2,2,0,0,1,.57.42,2.1,2.1,0,0,1,.38.61,3.21,3.21,0,0,1,.18.77h-3.8A2.49,2.49,0,0,1,146.81,59.31Z"/><path d="M155.07,59.2V57.54h-1.7v7.39h1.7V62.12a3.79,3.79,0,0,1,.19-1.28,2.47,2.47,0,0,1,.51-.92,2.21,2.21,0,0,1,.8-.55,2.8,2.8,0,0,1,1-.18h.1V57.4a2.35,2.35,0,0,0-1.62.46A3.33,3.33,0,0,0,155.07,59.2Z"/><path d="M174.6,64.93V60.21a3,3,0,0,0-.68-2.09,2.5,2.5,0,0,0-1.91-.74,2.72,2.72,0,0,0-1.45.37,3.67,3.67,0,0,0-1.06,1,2.27,2.27,0,0,0-.84-1,2.35,2.35,0,0,0-1.35-.37,2.65,2.65,0,0,0-.77.11,2.45,2.45,0,0,0-.61.29,2.73,2.73,0,0,0-.48.41,4.54,4.54,0,0,0-.39.48V57.54h-1.71v7.39h1.71V60.78a2,2,0,0,1,.43-1.35,1.44,1.44,0,0,1,1.14-.49,1.36,1.36,0,0,1,1.1.46,2,2,0,0,1,.39,1.33v4.2h1.71V60.77a1.92,1.92,0,0,1,.44-1.36,1.45,1.45,0,0,1,1.13-.47,1.33,1.33,0,0,1,1.1.46,2,2,0,0,1,.4,1.34v4.19Z"/><path d="M184.12,61.23a3.7,3.7,0,0,0-.29-1.49,3.92,3.92,0,0,0-3.64-2.36,4.08,4.08,0,0,0-1.58.31,4,4,0,0,0-1.24.84,3.87,3.87,0,0,0-.83,1.23,3.79,3.79,0,0,0-.3,1.5,3.71,3.71,0,0,0,.3,1.49,3.62,3.62,0,0,0,.81,1.22,3.85,3.85,0,0,0,1.25.83,4,4,0,0,0,1.56.3,3.91,3.91,0,0,0,1.58-.31A3.79,3.79,0,0,0,183,64a3.84,3.84,0,0,0,.82-1.23A3.72,3.72,0,0,0,184.12,61.23Zm-1.86,1a2.35,2.35,0,0,1-.44.75,2.3,2.3,0,0,1-.71.51,2.1,2.1,0,0,1-.92.19,2.08,2.08,0,0,1-.9-.19,2.43,2.43,0,0,1-.71-.51,2.34,2.34,0,0,1-.46-.76,2.49,2.49,0,0,1-.17-.94,2.71,2.71,0,0,1,.15-.91,2,2,0,0,1,.45-.75,2,2,0,0,1,.7-.51,2.09,2.09,0,0,1,.91-.19,2.14,2.14,0,0,1,1.62.71,2.27,2.27,0,0,1,.47.76,2.59,2.59,0,0,1,.17.92A2.73,2.73,0,0,1,182.26,62.18Z"/><path d="M185.76,57.54v4.7a3,3,0,0,0,.69,2.07,2.43,2.43,0,0,0,1.94.77,2.33,2.33,0,0,0,1.39-.38,3.65,3.65,0,0,0,.91-.93v1.16h1.71V57.54h-1.71V61.7a1.86,1.86,0,0,1-.46,1.35,1.56,1.56,0,0,1-1.19.48,1.46,1.46,0,0,1-1.16-.47,2,2,0,0,1-.41-1.33V57.54Z"/><path d="M199.05,61.27a3.44,3.44,0,0,0-.73-.41c-.27-.12-.54-.21-.81-.3l-.63-.2c-.2-.07-.37-.15-.53-.22a1.36,1.36,0,0,1-.37-.27.49.49,0,0,1-.14-.34v0a.64.64,0,0,1,.27-.53,1.26,1.26,0,0,1,.77-.21,3,3,0,0,1,1,.19,4.82,4.82,0,0,1,1.08.51l.67-1.21a5,5,0,0,0-1.3-.61,4.62,4.62,0,0,0-1.41-.23,3.13,3.13,0,0,0-1,.16,2.59,2.59,0,0,0-.84.44,2.09,2.09,0,0,0-.76,1.66v0a1.7,1.7,0,0,0,.21.89,2.1,2.1,0,0,0,.54.61,2.73,2.73,0,0,0,.74.39c.27.11.55.2.82.28l.62.19a2.93,2.93,0,0,1,.53.21,1.09,1.09,0,0,1,.37.28.57.57,0,0,1,.13.36v0a.68.68,0,0,1-.3.58,1.48,1.48,0,0,1-.85.22,3.58,3.58,0,0,1-1.2-.23,5.13,5.13,0,0,1-1.22-.68L193.92,64a5.26,5.26,0,0,0,1.52.83,4.93,4.93,0,0,0,1.62.28,3.81,3.81,0,0,0,1.08-.15,2.53,2.53,0,0,0,.87-.43,2,2,0,0,0,.58-.72,2.32,2.32,0,0,0,.21-1v0a1.66,1.66,0,0,0-.21-.86A2,2,0,0,0,199.05,61.27Z"/><path d="M207.38,58.57a3.13,3.13,0,0,0-1.1-.86,3.47,3.47,0,0,0-1.55-.33,3.42,3.42,0,0,0-1.45.31,3.83,3.83,0,0,0-1.15.84,3.79,3.79,0,0,0-.75,1.22,4.38,4.38,0,0,0-.26,1.5,4.14,4.14,0,0,0,.29,1.57,3.67,3.67,0,0,0,.81,1.21,3.63,3.63,0,0,0,1.2.79,4.19,4.19,0,0,0,3.25-.1,4.14,4.14,0,0,0,1.27-1l-1-.88a3.55,3.55,0,0,1-.91.66,2.47,2.47,0,0,1-1.09.22,2.11,2.11,0,0,1-1.4-.48,2.29,2.29,0,0,1-.73-1.39h5.44a1.66,1.66,0,0,1,0-.24v-.23a5.08,5.08,0,0,0-.22-1.52A3.72,3.72,0,0,0,207.38,58.57Zm-4.58,2.15a2.41,2.41,0,0,1,.62-1.41,1.7,1.7,0,0,1,1.3-.54,1.79,1.79,0,0,1,.75.15,2,2,0,0,1,.56.42,1.91,1.91,0,0,1,.38.61,3.21,3.21,0,0,1,.18.77Z"/><path d="M61.46,74.51a3.78,3.78,0,0,0-1.24-.82,3.91,3.91,0,0,0-1.58-.31,3.94,3.94,0,0,0-2.82,1.15A3.84,3.84,0,0,0,55,75.76a3.62,3.62,0,0,0-.3,1.5A3.7,3.7,0,0,0,55,78.75a3.83,3.83,0,0,0,2.06,2,4.07,4.07,0,0,0,1.57.3,4,4,0,0,0,1.58-.31,3.84,3.84,0,0,0,2.08-2.06,3.88,3.88,0,0,0-.82-4.22Zm-.74,3.67a2.38,2.38,0,0,1-.45.75,2.26,2.26,0,0,1-.7.51,2.15,2.15,0,0,1-.93.19,2,2,0,0,1-.89-.19,2.3,2.3,0,0,1-.71-.51,2.37,2.37,0,0,1-.47-.76,2.7,2.7,0,0,1-.17-.94,2.49,2.49,0,0,1,.16-.91,2.16,2.16,0,0,1,.44-.75,2.07,2.07,0,0,1,.7-.51,2.19,2.19,0,0,1,2.54.52,2.24,2.24,0,0,1,.46.76,2.59,2.59,0,0,1,.17.92A2.73,2.73,0,0,1,60.72,78.18Z"/><path d="M70.88,74.39a3.08,3.08,0,0,0-1.1-.75,3.28,3.28,0,0,0-1.27-.26,2.7,2.7,0,0,0-1.5.4,3.77,3.77,0,0,0-1,1V73.54H64.3v9.63H66l0-3.39a3.82,3.82,0,0,0,1,.91,2.71,2.71,0,0,0,1.51.39,3.32,3.32,0,0,0,1.28-.25,3.16,3.16,0,0,0,1.11-.75,3.8,3.8,0,0,0,.77-1.21,4.37,4.37,0,0,0,.28-1.64,4.16,4.16,0,0,0-.29-1.63A3.8,3.8,0,0,0,70.88,74.39Zm-.81,3.83a2.16,2.16,0,0,1-.46.75,2,2,0,0,1-.67.48,2.07,2.07,0,0,1-.82.16,2.15,2.15,0,0,1-.83-.16,2.19,2.19,0,0,1-.68-.49,2.39,2.39,0,0,1-.47-.75,2.49,2.49,0,0,1-.17-1,2.55,2.55,0,0,1,.17-1,2.46,2.46,0,0,1,.47-.74,2,2,0,0,1,.68-.49,2.16,2.16,0,0,1,.83-.17,2.08,2.08,0,0,1,.82.17,1.88,1.88,0,0,1,.67.48,2.16,2.16,0,0,1,.46.75,2.94,2.94,0,0,1,0,2Z"/><path d="M75.74,71.51H74v2h-.94V75H74v3.9a3,3,0,0,0,.15,1,1.72,1.72,0,0,0,.45.67,1.65,1.65,0,0,0,.68.36,3,3,0,0,0,.86.12,3,3,0,0,0,1.53-.38V79.29a2.32,2.32,0,0,1-1,.25,1,1,0,0,1-.67-.21.92.92,0,0,1-.24-.71V75h2V73.54h-2Z"/><rect x="79.52" y="73.54" width="1.71" height="7.39"/><rect x="79.45" y="70.79" width="1.83" height="1.61"/><path d="M92.09,73.38a2.7,2.7,0,0,0-1.45.37,3.54,3.54,0,0,0-1.06,1,2.36,2.36,0,0,0-.85-1,2.31,2.31,0,0,0-1.35-.37,2.58,2.58,0,0,0-.76.11,2.52,2.52,0,0,0-.62.29,2.73,2.73,0,0,0-.48.41,4.54,4.54,0,0,0-.39.48V73.54H83.42v7.39h1.71V76.78a2,2,0,0,1,.43-1.35,1.45,1.45,0,0,1,1.15-.49,1.36,1.36,0,0,1,1.1.46,2,2,0,0,1,.39,1.33v4.2h1.7V76.77a1.92,1.92,0,0,1,.44-1.36,1.47,1.47,0,0,1,1.14-.47,1.36,1.36,0,0,1,1.1.46A2,2,0,0,1,93,76.74v4.19h1.71V76.21A2.94,2.94,0,0,0,94,74.12,2.48,2.48,0,0,0,92.09,73.38Z"/><rect x="96.82" y="73.54" width="1.71" height="7.39"/><rect x="96.75" y="70.79" width="1.83" height="1.61"/><polygon points="100.55 74.92 104.66 74.92 100.39 79.77 100.39 80.93 106.82 80.93 106.82 79.54 102.55 79.54 106.82 74.7 106.82 73.54 100.55 73.54 100.55 74.92"/><path d="M114.22,74.57a3.25,3.25,0,0,0-1.11-.86,3.68,3.68,0,0,0-3,0,3.67,3.67,0,0,0-1.14.84,3.47,3.47,0,0,0-.75,1.22,4.16,4.16,0,0,0-.27,1.5,4,4,0,0,0,.3,1.57,3.5,3.5,0,0,0,.8,1.21,3.63,3.63,0,0,0,1.2.79,3.92,3.92,0,0,0,1.5.28,3.8,3.8,0,0,0,1.75-.38,4.14,4.14,0,0,0,1.27-1l-1-.88a3.73,3.73,0,0,1-.91.66,2.51,2.51,0,0,1-1.1.22,2.12,2.12,0,0,1-1.4-.48,2.29,2.29,0,0,1-.73-1.39h5.44c0-.09,0-.17,0-.24v-.23a5.08,5.08,0,0,0-.22-1.52A3.88,3.88,0,0,0,114.22,74.57Zm-4.59,2.15a2.48,2.48,0,0,1,.62-1.41,1.72,1.72,0,0,1,1.3-.54,1.79,1.79,0,0,1,.75.15,2,2,0,0,1,.57.42,2.07,2.07,0,0,1,.37.61,2.48,2.48,0,0,1,.18.77Z"/><path d="M122.37,74.69a4,4,0,0,0-1-.91,2.76,2.76,0,0,0-1.51-.4,3.33,3.33,0,0,0-1.28.26,3,3,0,0,0-1.1.75,3.78,3.78,0,0,0-.76,1.21,4.35,4.35,0,0,0-.29,1.63,4.17,4.17,0,0,0,.3,1.64,3.64,3.64,0,0,0,.77,1.21,3,3,0,0,0,1.09.75,3.27,3.27,0,0,0,1.27.25,2.67,2.67,0,0,0,1.5-.4,3.93,3.93,0,0,0,1-1v1.23h1.71V70.71h-1.71Zm-.15,3.52a2.36,2.36,0,0,1-.46.75,2.23,2.23,0,0,1-.69.49,2.05,2.05,0,0,1-.81.16,2,2,0,0,1-.81-.16,2.12,2.12,0,0,1-1.14-1.23,2.78,2.78,0,0,1-.17-1,2.87,2.87,0,0,1,.17-1,2.36,2.36,0,0,1,.46-.75,2,2,0,0,1,.68-.46,2,2,0,0,1,.81-.17,2.05,2.05,0,0,1,1.5.66,2.43,2.43,0,0,1,.46.74,2.55,2.55,0,0,1,.18,1A2.48,2.48,0,0,1,122.22,78.21Z"/><path d="M130.49,80.93a.88.88,0,0,1-.22.69.79.79,0,0,1-.58.21,2.59,2.59,0,0,1-.47,0v1.36l.38,0a2.89,2.89,0,0,0,.43,0,2.26,2.26,0,0,0,1.61-.52A2.2,2.2,0,0,0,132.2,81V73.54h-1.71Z"/><rect x="130.42" y="70.79" width="1.83" height="1.61"/><path d="M139.24,77.7a1.86,1.86,0,0,1-.46,1.35,1.56,1.56,0,0,1-1.19.48,1.46,1.46,0,0,1-1.16-.47,2,2,0,0,1-.41-1.33V73.54h-1.71v4.7a3,3,0,0,0,.69,2.07,2.43,2.43,0,0,0,1.94.77,2.33,2.33,0,0,0,1.39-.38,3.5,3.5,0,0,0,.91-.93v1.16H141V73.54h-1.71Z"/><path d="M147.61,77.27a3.52,3.52,0,0,0-.74-.41c-.27-.12-.54-.21-.81-.3s-.42-.13-.62-.2-.38-.15-.54-.22a1.54,1.54,0,0,1-.37-.27.49.49,0,0,1-.14-.34v0a.62.62,0,0,1,.28-.53,1.21,1.21,0,0,1,.76-.21,3,3,0,0,1,1,.19,5,5,0,0,1,1.07.51l.68-1.21a5.24,5.24,0,0,0-1.31-.61,4.62,4.62,0,0,0-1.41-.23,3.17,3.17,0,0,0-1,.16,2.59,2.59,0,0,0-.84.44,2.09,2.09,0,0,0-.76,1.66v0a1.7,1.7,0,0,0,.21.89,2.1,2.1,0,0,0,.54.61,2.89,2.89,0,0,0,.74.39c.27.11.55.2.82.28l.62.19a2.93,2.93,0,0,1,.53.21,1.09,1.09,0,0,1,.37.28.52.52,0,0,1,.13.36v0a.68.68,0,0,1-.3.58,1.46,1.46,0,0,1-.85.22,3.48,3.48,0,0,1-1.19-.23,5,5,0,0,1-1.23-.68L142.47,80a5.26,5.26,0,0,0,1.52.83,4.93,4.93,0,0,0,1.62.28,3.81,3.81,0,0,0,1.08-.15,2.45,2.45,0,0,0,.87-.43,2,2,0,0,0,.58-.72,2.19,2.19,0,0,0,.21-1v0a1.57,1.57,0,0,0-.21-.86A2,2,0,0,0,147.61,77.27Z"/><path d="M152,71.51h-1.7v2h-.94V75h.94v3.9a3,3,0,0,0,.15,1,1.53,1.53,0,0,0,.45.67,1.65,1.65,0,0,0,.68.36,2.93,2.93,0,0,0,.86.12,3.45,3.45,0,0,0,.84-.1,3.14,3.14,0,0,0,.68-.28V79.29a2.26,2.26,0,0,1-1,.25,1,1,0,0,1-.67-.21.92.92,0,0,1-.24-.71V75h2V73.54h-2Z"/><path d="M162.54,70.63a2.28,2.28,0,0,0-1.69.59,2.49,2.49,0,0,0-.6,1.83v.53h-.93V75h.93v5.94H162V75h1.93v-1.4h-2v-.4c0-.75.33-1.12,1-1.12a2,2,0,0,1,.51.05,3.24,3.24,0,0,1,.49.13V70.82l-.6-.14A5.74,5.74,0,0,0,162.54,70.63Z"/><path d="M171.36,74.51a3.78,3.78,0,0,0-1.24-.82,3.91,3.91,0,0,0-1.58-.31,3.94,3.94,0,0,0-2.82,1.15,3.87,3.87,0,0,0-.83,1.23,3.79,3.79,0,0,0-.3,1.5,3.71,3.71,0,0,0,.3,1.49,3.64,3.64,0,0,0,.82,1.22,3.8,3.8,0,0,0,1.24.83,4.22,4.22,0,0,0,3.15,0,3.78,3.78,0,0,0,2.07-2.06,3.57,3.57,0,0,0,.31-1.5,3.88,3.88,0,0,0-1.12-2.72Zm-.75,3.67a2.35,2.35,0,0,1-.44.75,2.38,2.38,0,0,1-.7.51,2.18,2.18,0,0,1-.93.19,2.11,2.11,0,0,1-.9-.19,2.43,2.43,0,0,1-.71-.51,2.53,2.53,0,0,1-.46-.76,2.76,2.76,0,0,1,0-1.85,2.34,2.34,0,0,1,.45-.75,2,2,0,0,1,.7-.51,2.12,2.12,0,0,1,.91-.19,2.14,2.14,0,0,1,1.62.71,2.27,2.27,0,0,1,.47.76,2.59,2.59,0,0,1,.17.92A2.51,2.51,0,0,1,170.61,78.18Z"/><path d="M175.91,75.2V73.54H174.2v7.39h1.71V78.12a4.08,4.08,0,0,1,.18-1.28,2.36,2.36,0,0,1,.52-.92,2.17,2.17,0,0,1,.79-.55,2.82,2.82,0,0,1,1-.18h.09V73.4a2.35,2.35,0,0,0-1.62.46A3.23,3.23,0,0,0,175.91,75.2Z"/><path d="M187.38,79l-2.09-5.49h-1.81l3.08,7.38a1.68,1.68,0,0,1-.45.67,1,1,0,0,1-.6.18,1.7,1.7,0,0,1-.51-.08,2.55,2.55,0,0,1-.48-.2l-.58,1.27a4.05,4.05,0,0,0,.81.33,3.35,3.35,0,0,0,.94.12,2.46,2.46,0,0,0,.8-.11,1.7,1.7,0,0,0,.64-.36,2.42,2.42,0,0,0,.54-.63,7.44,7.44,0,0,0,.46-1l2.94-7.6H189.3Z"/><path d="M198.47,74.51a3.82,3.82,0,0,0-1.25-.82,3.89,3.89,0,0,0-1.57-.31,4.08,4.08,0,0,0-1.58.31,3.88,3.88,0,0,0-1.24.84,3.71,3.71,0,0,0-.83,1.23,3.79,3.79,0,0,0-.3,1.5,3.88,3.88,0,0,0,.29,1.49,3.8,3.8,0,0,0,.82,1.22,3.85,3.85,0,0,0,1.25.83,4,4,0,0,0,1.56.3,3.94,3.94,0,0,0,1.58-.31,3.74,3.74,0,0,0,1.25-.83,3.87,3.87,0,0,0,.83-1.23,3.72,3.72,0,0,0,.3-1.5,3.81,3.81,0,0,0-1.11-2.72Zm-.75,3.67a2.21,2.21,0,0,1-.45.75,2.26,2.26,0,0,1-.7.51,2.1,2.1,0,0,1-.92.19,2,2,0,0,1-.9-.19,2.3,2.3,0,0,1-.71-.51,2.37,2.37,0,0,1-.47-.76,2.84,2.84,0,0,1,0-1.85,2.16,2.16,0,0,1,.44-.75,2,2,0,0,1,.71-.51,2.06,2.06,0,0,1,.91-.19,2.09,2.09,0,0,1,.91.19,2.14,2.14,0,0,1,.71.52,2.44,2.44,0,0,1,.47.76,2.58,2.58,0,0,1,.16.92A2.73,2.73,0,0,1,197.72,78.18Z"/><path d="M206.15,77.7a1.9,1.9,0,0,1-.46,1.35,1.6,1.6,0,0,1-1.2.48,1.48,1.48,0,0,1-1.16-.47,2,2,0,0,1-.4-1.33V73.54h-1.71v4.7a3,3,0,0,0,.68,2.07,2.44,2.44,0,0,0,1.94.77,2.34,2.34,0,0,0,1.4-.38,3.83,3.83,0,0,0,.91-.93v1.16h1.7V73.54h-1.7Z"/></g></g></svg>