v 1.578812599 -2.689395905 3.425638676
vn 0.6235694885 -0.6576219201 0.4227227867
v 2.195799112 -2.143259048 3.365526676
vn 0.5353021026 -0.4642673135 0.7056256533
v 2.338273048 -2.43298316 2.633984327
vn 0.3860763311 -0.91179353 0.1399199963
v 3.152588129 -2.073937893 2.662870884
vn 0.4483772814 -0.7241799831 0.5239476562
v 3.758605003 -3.037380934 1.06987381
vn 0.05922715738 -0.3399009407 0.9385944009
v 2.371413946 -3.102256536 1.185295939
vn 0.1958127618 -0.3239031136 0.9256047606
v 1.573074222 -2.708612442 2.701250076
vn 0.3539212942 -0.9330849051 -0.0639706105
v 2.805629969 -1.413208008 3.171011209
vn 0.518469274 -0.1550668925 0.8409184813
v 2.970291615 -0.9406303763 3.02633214
vn 0.5254596472 0.1529845893 0.8369515538
v 3.743021727 -1.41831398 2.626014709
vn 0.5521155 -0.26753968 0.7896777987
v 3.900488853 -0.9541230202 2.435270071
vn 0.6050284505 0.198760584 0.7709959745
v 5.745608807 -0.3504601121 0.4098293781
vn 0.2596959472 0.2578468621 0.9306304455
v 5.886156559 -0.8051691055 0.6131942272
vn 0.2996444106 0.4390864968 0.8470042944
v 6.258801937 1.025439858 0.194673568
vn 0.07435453683 -0.0851617828 0.9935888648
v 1.310883403 -2.22320652 3.853113651
vn 0.5837088227 -0.1688608825 0.7942103148
v 0.8909144998 -2.918810844 4.18999958
vn 0.7299028635 0.05478728935 0.6813517213
v -0.3659608662 -3.163433552 5.526976585
vn 0.5336752534 0.6921716332 0.4858900607
v -0.6563336849 -2.615320206 5.369909763
vn 0.6564252377 0.3356233239 0.6756203771
v 0.2543752789 -3.033816338 4.899119377
vn 0.5787575841 0.4803861976 0.6589907408
v 0.1824909449 -2.386477947 4.697471619
vn 0.540278852 0.09698486328 0.8358783722
v 0.631159246 -1.042559147 4.274283409
vn 0.4267273247 0.1210868508 0.8962375522
v 1.017579794 -0.3284628391 4.017252445
vn 0.4355210662 0.2074837983 0.8759405613
v 1.820531964 -1.048570633 3.752303839
vn 0.4871756136 0.03024324402 0.8727802038
v 2.054724693 -0.4974636436 3.517366886
vn 0.4921862781 0.2371378541 0.8375669122
v 2.069000721 1.270503879 2.564492702
vn 0.5570170879 0.4955049753 0.666488409
v 2.231276751 0.7122957706 2.848457575
vn 0.5307231545 0.4604907036 0.7115344405
v 1.400255799 1.463465214 2.973450184
vn 0.5263644457 0.4438730478 0.7252014875
v 1.205059648 0.7885577679 3.42726922
vn 0.4988202751 0.4042157233 0.7666733265
v -0.345458746 1.030383348 4.630535126
vn 0.7223649025 -0.04069669545 0.690313518
v -0.4964799881 0.6900451779 4.693016052
vn 0.8145011067 0.1119263917 0.569263041
v -0.1593415737 -1.780862331 4.751747608
vn 0.5533048511 0.1426791102 0.8206682801
v 1.930092812 -1.605783701 3.628969431
vn 0.4744211137 -0.1441925913 0.8684083819
v 3.071967602 -0.4977860451 2.832113504
vn 0.5506540537 0.2754995227 0.7879594564
v 2.744259834 1.492718935 1.732304573
vn 0.6067432165 0.3791484237 0.6986480951
v 2.963221073 2.162890911 1.403423905
vn 0.4952263832 0.03179978952 0.8681817651
v 3.420681715 1.1104846 1.335563183
vn 0.5864133239 0.3545973301 0.7282720208
v 3.875715494 1.946508169 0.9182976484
vn 0.2885864377 -0.2724131942 0.9178828597
v 2.849307775 3.466565847 2.156195879
vn -0.03882163763 -0.870035708 0.4914577603
v 2.325138092 2.966609716 1.879543662
vn 0.3071185648 -0.4262952805 0.8508528471
v 1.922642827 3.70772934 2.539761782
vn 0.04354722053 -0.8076305389 0.5880786777
v 1.499819517 3.177274942 2.299302816
vn 0.4016974866 -0.3650394976 0.8398721814
v 6.839679241 1.777203679 0.7036240697
vn -0.09198764712 -0.6692982912 0.7372775078
v 4.893416882 -1.124879837 1.611316919
vn 0.647337079 0.1601904482 0.7451803088
v 4.841757774 -0.8214051723 1.400402665
vn 0.604170382 0.4324625134 0.6692938805
v 5.95740366 -1.668830514 0.8674762249
vn 0.2886041105 0.2189732343 0.932072103
v 5.99245739 -1.154220819 0.7434886694
vn 0.2856397331 0.2796998322 0.9166122079
v 2.991812468 -2.263771057 1.697849274
vn 0.1827953756 -0.8310372233 0.5253218412
v 4.12896204 -2.123081446 1.775773287
vn 0.2465832233 -0.6725407243 0.6977719069
v 5.098387241 -2.787004948 1.080812454
vn 0.1388437152 -0.2746547461 0.9514657855
v 1.2140311 -2.735310078 2.084141493
vn 0.3984123766 -0.8208552003 0.409224093
v 1.322975278 -3.310131788 1.45753324
vn 0.3621612787 -0.3603311777 0.8596514463
v 0.4745854437 -3.046643496 2.415732384
vn 0.3740179539 -0.856593132 0.3554697931
v 0.4739618897 -3.568407774 1.845612645
vn 0.3868582845 -0.3752862215 0.8423187733
v 5.300024986 1.416104436 0.4310628176
vn 0.1248457208 -0.3195299208 0.9393157959
v 4.82722187 0.2915754914 0.6451215744
vn 0.3819721639 0.144496426 0.9128077626
v -0.9830691814 -2.026458502 5.548750401
vn 0.7458074093 0.1637064815 0.6457332969
v -1.832511663 -1.469900966 6.877372265
vn 0.497685343 0.2549088597 0.8290541172
v -1.491210222 -1.500860453 6.571279049
vn 0.9174195528 0.05912135541 0.393504858
v -1.367745399 -1.961651087 6.153308392
vn 0.9418250918 0.1533889323 0.2990607023
v -0.00604063971 1.716784477 4.26679945
vn 0.8232058287 -0.004921621643 0.5677217245
v 1.216364503 0.2964074016 3.685520887
vn 0.4680156112 0.3250449598 0.8217707276
v 0.3534927964 0.9139853716 3.98479414
vn 0.6435853243 0.2410808206 0.7264144421
v 0.2772450745 0.5344933867 4.12036562
vn 0.5276299715 0.1974723339 0.826202929
v -0.1742904782 -0.9726947546 4.723877907
vn 0.5607582331 0.07124429196 0.8249087334
v -0.4497426152 -1.417975068 4.92721653
vn 0.6763370633 0.06691592187 0.7335464954
v -0.7834681273 -1.053159475 5.249182701
vn 0.8468645215 -0.09803477675 0.5226945877
v -1.09954524 -1.460674286 5.614253998
vn 0.8621466756 -0.1430188268 0.4860542119
v 3.996377945 3.195001125 1.699804068
vn -0.06585885584 -0.8381162882 0.5415013433
v -3.32241106 -3.370874405 8.11497879
vn 0.2487696409 0.1331883073 0.9593615532
v -3.75051856 -3.390362024 8.080189705
vn 0.2255901396 0.046630539 0.973105669
v 2.231144667 0.1184559762 3.204600334
vn 0.5018570423 0.3618922234 0.7856039405
v 3.166606903 -0.02515438199 2.58689332
vn 0.5842666626 0.4174740314 0.6959511042
v -3.525630951 -1.572466373 7.982442379
vn 0.2476121783 0.07496201992 0.9659548998
v -3.140070677 -1.518406034 7.709320068
vn 0.4739458859 0.1936822534 0.8589892387
v -1.181223869 -2.509351254 6.079235554
vn 0.8404739499 0.3408147395 0.4212467968
v -0.9223914742 -3.080636501 6.183373451
vn 0.6318155527 0.6740279198 0.3827472031
v -1.249820232 -3.279103279 7.157328129
vn 0.6752078533 0.3469367623 0.6509448886
v 3.139975548 0.5689694285 2.158355236
vn 0.6180615425 0.5060186982 0.6016186476
v -2.87411499 -3.379449844 8.019581795
vn 0.4459016025 0.2402485758 0.8622368574
v -0.01674718596 2.354526997 4.108025074
vn 0.8867511749 0.09367676824 0.4526554644
v -5.036004543 -1.700437427 8.388957977
vn 0.190220058 0.08240569383 0.9782768488
v -3.992120504 -1.621114373 8.081126213
vn 0.2940923274 0.05867827311 0.9539740682
v 1.983791113 -2.49623251 1.871054411
vn 0.3196400106 -0.9026933908 0.2880536616
v 3.965564966 -0.2540634274 1.955463648
vn 0.6517255306 0.4796141684 0.5875577331
v 3.968231201 0.1718265116 1.587655187
vn 0.6485240459 0.4914488196 0.5812870264
v 4.047498226 0.7377762198 1.040253401
vn 0.5507619977 0.2835689783 0.7850158215
v 4.438122272 1.757723689 0.6956085563
vn 0.2331103832 -0.2581683397 0.9375545979
v 4.770298958 -0.5695776343 1.233581305
vn 0.5864014626 0.4940255582 0.6419283748
v 4.721133709 -0.2158665955 1.034980416
vn 0.5886887908 0.4521223009 0.6700977087
v 4.964543343 2.782406092 1.320055723
vn -0.16379264 -0.8143318892 0.5568083525
v -1.275071621 -0.9123390913 6.640824318
vn 0.9170123339 -0.1163302362 0.3815174997
v 4.717224121 -1.676720738 1.802597761
vn 0.5447871685 -0.2415403575 0.8030349612
v 5.569792271 -2.279313326 1.015321493
vn 0.2406966686 -0.02917141281 0.9701619148
v 1.103219867 -2.852811337 2.867224216
vn 0.2672227919 -0.9484806061 -0.170225054
v 0.6079210043 -3.032148838 3.161085129
vn 0.255047828 -0.9076051116 -0.3334719539
v 0.188789919 -0.3216587305 4.410746574
vn 0.5235102177 0.1605378091 0.8367584348
v -0.5882136822 -0.2425735891 4.952929974
vn 0.8145439029 0.05444866046 0.5775409937
v -4.830664635 -3.350004911 8.478535652
vn 0.2820661664 0.0666352734 0.9570780396
v 0.4819520712 1.597486019 3.532799721
vn 0.6805832982 0.3000091314 0.6684316397
v 1.431321025 3.861794233 2.868741989
vn 0.3748335242 -0.7514781356 0.5429368615
v 5.806113243 2.231962204 0.9854745865
vn -0.1226106435 -0.7368761301 0.6648159027
v 3.92692852 -0.5392385721 2.204672575
vn 0.6222118735 0.3958959877 0.6753656268
v -5.340525627 -3.351837158 8.548467636
vn 0.03306335583 0.07221139222 0.9968411922
v -5.571797371 -1.738100767 8.426228523
vn -0.08230794221 0.0737965256 0.9938709736
v -5.825659275 -3.392879248 8.497306824
vn -0.1457206458 0.07694777101 0.9863288403
v -6.653693676 -3.390490055 8.391403198
vn -0.1663102061 0.08845805377 0.9820978045
v -7.195214272 -3.219436169 8.226329803
vn -0.03040561266 -0.03094195388 0.9990586042
v -7.599859238 -3.008658171 8.226131439
vn -0.008950048126 -0.127200976 0.9918366075
v -7.873652935 -2.5644629 8.321342468
vn 0.1611469239 -0.1108762324 0.9806824923
v -7.324914932 -1.930196285 8.38090992
vn 0.09361522645 -0.1127833426 0.9891997576
v -6.036585808 -1.769605517 8.325487137
vn -0.1514744759 0.08631462604 0.9846853614
v -6.720092297 -1.843552232 8.237966537
vn -0.06630066782 0.0358132273 0.9971567988
v -7.720009327 -2.12137723 8.346190453
vn 0.0409934409 -0.1285236478 0.9908588529
v -1.546601653 0.8502672911 6.143468857
vn 0.507306695 0.3117377162 0.8034049273
v -4.032528877 -0.1003057733 7.493667603
vn 0.3294927478 0.2783836126 0.9021846056
v -4.424936771 -0.04215014726 7.345623493
vn -0.2497650981 0.2304725647 0.9404785037
v -3.859703541 1.507085085 7.022694111
vn 0.197523281 0.2296340913 0.9530229568
v -3.450907946 1.33338201 6.674757004
vn 0.4053443372 0.3149052262 0.8582136631
v -1.482040167 -0.5711647868 6.807776928
vn 0.6196116209 0.3588164151 0.698091805
v -3.561344385 -0.2764388025 7.35809803
vn 0.3183858693 0.377481699 0.8695619702
v -5.553702354 1.65837121 6.739147663
vn -0.1997574121 0.0985628143 0.9748755693
v -4.311417103 1.56955719 7.007787704
vn -0.2258055657 0.1714792699 0.9589612484
v -5.828134537 0.1455177218 6.835868835
vn -0.2595259845 0.1451924145 0.9547593594
v -6.206026077 0.1976168156 6.699417591
vn -0.381662488 0.06895853579 0.9217258096
v -6.09569931 1.694226861 6.629573822
vn -0.3009398878 0.08103577793 0.950193882
v -7.920505524 0.4743320644 5.858831406
vn -0.4047643542 0.02722526342 0.9140156507
v -7.390987396 0.3186315 6.129508018
vn -0.4277789295 0.05982932076 0.9019011259
v -8.235424042 0.8333362937 5.712486267
vn -0.3428564966 -0.02593170851 0.9390298128
v -6.46391964 0.1767254919 6.580182076
vn -0.4272206724 0.06402990222 0.901877284
v -6.549985886 1.712581396 6.430372238
vn -0.418392837 0.06316082925 0.906067431
v -7.203988552 1.716265559 6.130692482
vn -0.4074696302 0.04044016078 0.9123229384
v -7.846722603 1.735386848 5.879318714
vn -0.3468054235 -0.0103878323 0.9378795624
v -8.253984451 1.578148246 5.760539532
vn -0.26850456 -0.03182017058 0.9627526999
v -8.361923218 1.1565063 5.716500282
vn -0.2299842983 -0.06836368144 0.9707902074
v -3.100958347 1.795073748 5.014814377
vn -0.6112789512 0.1866340339 0.7690941691
v -2.863896608 1.806374788 5.279500484
vn -0.4849766195 0.1162394658 0.8667675853
v -0.9341370463 1.416327834 5.453917027
vn 0.3380021453 -0.0169594679 0.9409925342
v -0.68595016 3.108721495 5.496228695
vn 0.5652996898 -0.1565203518 0.809899807
v -2.229928493 3.404927969 5.279993057
vn -0.1302252561 0.02174576372 0.9912459254
v -2.631622314 1.704498529 5.281864166
vn -0.08571487665 0.02134456672 0.9960910678
v -4.206597805 3.281811714 3.80526042
vn -0.5788305998 0.2369281948 0.7802693248
v -2.949546337 3.418282747 4.861248016
vn -0.6662665606 0.1349165887 0.7334073782
v -2.644120693 3.453129768 5.141580582
vn -0.4962183237 0.1380146295 0.8571577072
v -4.353391171 1.814365625 4.187677383
vn -0.4576599598 0.2668097317 0.8481509089
v -4.883586407 1.928248882 4.01101923
vn -0.6399177313 0.4032483399 0.654137671
v -4.516332626 3.223934412 3.386861086
vn -0.8206748366 0.437833488 0.3671439886
v -4.681699276 3.083222866 2.942938328
vn -0.8194501996 0.4706636667 0.3270734251
v -5.180524349 1.794320703 3.547930717
vn -0.8566792011 0.4092822969 0.3139883876
v -5.416871548 1.572223067 2.829246998
vn -0.9200330377 0.294631362 0.2583246231
v -5.632069111 1.40053916 2.310365438
vn -0.9155043364 0.2952600718 0.2732642293
v -5.7239995 1.482528448 1.897205234
vn -0.9230521321 0.2292557061 0.3088958263
v -5.627803802 1.873982072 1.529025316
vn -0.9621958137 -0.01908581704 -0.2716890275
v -5.130321503 2.851727962 2.384183407
vn -0.8759326935 0.3683387041 0.311558187
v -5.378312111 2.645383358 1.815469503
vn -0.8923110366 0.2957722843 0.3410274386
v -5.66233778 2.421508074 1.612865567
vn -0.9209210277 0.1671011895 0.3521103561
v -1.42011404 3.708733559 3.11503315
vn -0.6464141011 0.1025496349 0.7560637593
v -1.71194315 3.657811165 2.844512701
vn -0.7414714694 0.1043370143 0.6628226042
v 0.7723227739 3.511290312 3.097118139
vn 0.08312361687 -0.4482466877 0.8900367022
v 0.4137750268 3.185751915 3.365781307
vn 0.2211395204 0.1631018221 0.9615066648
v 0.1965539902 2.949374914 3.650642395
vn 0.7297020555 0.5075404048 0.4581895173
v -0.1456906646 3.138136148 4.327009201
vn 0.9620375037 -0.07946749777 0.2610915005
v -0.7098904848 5.153688908 3.267855883
vn -0.1485867798 -0.09532676637 0.9842940569
v -1.220354199 3.700544357 3.299008846
vn 0.009630245157 0.3979157805 0.9173713923
v -1.228711009 5.179963112 3.053840876
vn -0.5250974894 0.1300796717 0.841042161
v -1.647020459 5.129896164 2.74227047
vn -0.7156487703 0.08814674616 0.6928758621
v -2.339827776 3.586369038 2.198155642
vn -0.7833862305 0.1298970729 0.607809782
v -2.221330166 4.969851494 2.030834198
vn -0.7662508488 0.1153022498 0.6321115494
v -2.492491245 4.866930008 1.663714409
vn -0.8788251877 0.09043286741 0.468495667
v -2.769174099 4.592955112 1.110070944
vn -0.9526111484 0.04099551961 0.3014155924
v -3.092361927 4.127636909 0.3090633452
vn -0.7319942713 0.1614872962 0.6618959904
v -3.515642166 3.369644165 0.3380684853
vn -0.05532245338 0.2261181325 0.9725276232
v -3.324788332 3.232628345 0.3269536793
vn -0.08194132149 0.1602372825 0.9836714864
v -2.793221474 3.233566523 1.186151028
vn -0.9580196142 0.09067448229 0.2719863653
v -3.036907434 3.15581584 0.6681966782
vn -0.8454964161 0.2014586031 0.4945202172
v -2.53184557 3.45395112 1.769691706
vn -0.9200855494 0.03426833451 0.3902157247
v -3.156369448 3.232833624 0.3902825117
vn -0.6732287407 0.1253652573 0.7287294865
v -3.545505047 3.759777308 0.1918331087
vn -0.3550451398 0.3041699529 0.8839816451
v -2.772070169 4.320257187 0.5874857903
vn -0.934194386 0.1496760547 0.3238486052
v -3.311350107 4.000833035 0.2029347718
vn -0.2810271978 0.1735582352 0.9438756704
v -2.461131096 3.530873537 1.943074465
vn -0.9099959135 0.05848732218 0.4104713202
v -0.6599470377 -3.278497934 3.231172562
vn 0.1944829524 -0.9768592119 -0.08900793642
v -0.7604153752 -3.436737061 2.574189186
vn 0.3134473562 -0.7942216396 0.5205408335
v -0.7800988555 -3.945505619 2.157928944
vn 0.2611235082 -0.3576107025 0.8966209292
v -1.198848844 -3.956857681 2.208532333
vn -0.2201813012 -0.4095043242 0.8853397369
v -2.502911806 -3.193582773 2.038507938
vn -0.170415774 -0.5000113249 0.8490860462
v -3.225904226 -3.011817932 2.187123299
vn 0.05359857157 -0.7308242321 0.6804580688
v -3.743017435 -2.977792025 2.472237349
vn 0.2793664038 -0.8883735538 0.3643443882
v -2.361321211 -2.908491611 2.421759367
vn -0.2670984268 -0.8759675622 0.4016706347
v -3.080141306 -2.84503603 2.52553606
vn 0.01217874233 -0.9375143647 0.3477333486
v -1.521417379 -3.695967674 2.11984396
vn -0.3273574114 -0.3984947801 0.8567607999
v -1.224342227 -3.352192402 2.601956129
vn -0.4274988174 -0.8191977739 0.3823085129
v -3.509710789 -2.909513235 2.642139673
vn 0.1991955191 -0.9685753584 0.1489392668
v -1.058908224 -3.504616499 2.585674763
vn -0.07247237116 -0.8192655444 0.5688161254
v -0.9404923916 -3.328337669 3.177596569
vn 0.03394370154 -0.9959971309 0.08268968016
v -1.179072976 -3.262022972 3.261727333
vn -0.3488818109 -0.9366034865 -0.03248751163
v -2.281812429 -2.842864275 3.091741323
vn -0.2492831051 -0.9653977156 -0.07658415288
v -3.128463268 -2.819717407 2.970825672
vn 0.060248252 -0.9888191223 -0.1364071071
v -3.990477085 -3.039719582 2.866501093
vn 0.5008127689 -0.8637115359 -0.05647118017
v -3.624933958 -2.947850704 2.938960075
vn 0.2671338916 -0.9541084766 -0.1353386045
v 1.060399413 3.29345274 2.612270117
vn 0.601323545 -0.3423786461 0.7219327688
v 0.7485330105 2.784934998 2.840199471
vn 0.7478352785 0.02613209374 0.6633698344
v 1.290015697 2.69512105 2.387868404
vn 0.5837509632 0.1429706812 0.7992460132
v 2.105293989 2.439278126 1.89057827
vn 0.5281342268 0.09197189659 0.844165504
v 3.063958168 2.730833769 1.498425364
vn 0.2100163549 -0.5006688833 0.8397760391
v 2.016286135 1.84689343 2.184612036
vn 0.579420805 0.4096579254 0.70459342
v 1.182276368 2.154559374 2.671260595
vn 0.6064769626 0.3483884633 0.7147105932
v 0.4349685609 2.343963861 3.346065044
vn 0.7819842696 0.1715849489 0.5992155075
v 2.695829868 1.068394542 2.184393167
vn 0.5890959501 0.5072214603 0.6290408373
# mm_gid 0
g mmGroup0
f 1//1 3//3 2//2 
f 2//2 3//3 4//4 
f 1//1 7//7 3//3 
f 8//8 10//10 9//9 
f 9//9 10//10 11//11 
f 2//2 15//15 1//1 
f 1//1 15//15 16//16 
f 17//17 19//19 18//18 
f 18//18 19//19 20//20 
f 21//21 23//23 22//22 
f 22//22 23//23 24//24 
f 25//25 27//27 26//26 
f 26//26 27//27 28//28 
f 23//23 21//21 20//20 
f 20//20 21//21 31//31 
f 9//9 23//23 8//8 
f 8//8 23//23 32//32 
f 23//23 9//9 24//24 
f 24//24 9//9 33//33 
f 34//34 36//36 35//35 
f 35//35 36//36 37//37 
f 38//38 40//40 39//39 
f 39//39 40//40 41//41 
f 43//43 45//45 44//44 
f 44//44 45//45 46//46 
f 47//47 5//5 48//48 
f 48//48 5//5 49//49 
f 50//50 52//52 51//51 
f 51//51 52//52 53//53 
f 54//54 55//55 14//14 
f 14//14 55//55 12//12 
f 20//20 31//31 18//18 
f 18//18 31//31 56//56 
f 28//28 62//62 61//61 
f 61//61 62//62 63//63 
f 64//64 66//66 65//65 
f 65//65 66//66 67//67 
f 22//22 24//24 61//61 
f 61//61 24//24 71//71 
f 72//72 71//71 33//33 
f 33//33 71//71 24//24 
f 78//78 26//26 72//72 
f 72//72 26//26 71//71 
f 26//26 28//28 71//71 
f 71//71 28//28 61//61 
f 83//83 6//6 47//47 
f 47//47 6//6 5//5 
f 72//72 84//84 78//78 
f 78//78 84//84 85//85 
f 36//36 86//86 37//37 
f 37//37 86//86 87//87 
f 46//46 13//13 44//44 
f 44//44 13//13 88//88 
f 89//89 88//88 12//12 
f 12//12 88//88 13//13 
f 59//59 75//75 56//56 
f 56//56 75//75 18//18 
f 17//17 18//18 76//76 
f 76//76 18//18 75//75 
f 92//92 93//93 43//43 
f 43//43 93//93 45//45 
f 22//22 96//96 21//21 
f 21//21 96//96 64//64 
f 21//21 64//64 31//31 
f 31//31 64//64 65//65 
f 66//66 64//64 97//97 
f 97//97 64//64 96//96 
f 29//29 62//62 60//60 
f 60//60 62//62 99//99 
f 97//97 96//96 30//30 
f 30//30 96//96 63//63 
f 30//30 63//63 29//29 
f 29//29 63//63 62//62 
f 68//68 37//37 90//90 
f 90//90 37//37 87//87 
f 33//33 102//102 72//72 
f 72//72 102//102 84//84 
f 101//101 54//54 42//42 
f 42//42 54//54 14//14 
f 9//9 11//11 33//33 
f 33//33 11//11 102//102 
f 67//67 59//59 56//56 
f 31//31 65//65 56//56 
f 56//56 65//65 67//67 
f 96//96 22//22 63//63 
f 63//63 22//22 61//61 
f 103//103 104//104 105//105 
f 153//153 148//148 147//147 
f 161//161 160//160 163//163 
f 80//80 138//138 60//60 
f 76//76 75//75 77//77 
f 128//128 126//126 132//132 
f 119//119 91//91 97//97 
f 29//29 60//60 137//137 
f 125//125 130//130 124//124 
f 141//141 135//135 142//142 
f 114//114 119//119 97//97 
f 145//145 141//141 146//146 
f 145//145 144//144 141//141 
f 80//80 160//160 161//161 
f 57//57 77//77 58//58 
f 91//91 58//58 67//67 
f 131//131 132//132 126//126 
f 135//135 141//141 144//144 
f 170//170 174//174 178//178 
f 110//110 107//107 112//112 
f 127//127 129//129 130//130 
f 151//151 150//150 154//154 
f 176//176 174//174 170//170 
f 160//160 159//159 163//163 
f 69//69 79//79 74//74 
f 122//122 121//121 123//123 
f 133//133 134//134 132//132 
f 154//154 149//149 153//153 
f 152//152 151//151 155//155 
f 107//107 110//110 108//108 
f 128//128 132//132 134//134 
f 177//177 171//171 179//179 
f 166//166 168//168 180//180 
f 157//157 156//156 165//165 
f 143//143 142//142 136//136 
f 116//116 115//115 117//117 
f 59//59 67//67 58//58 
f 162//162 163//163 159//159 
f 74//74 79//79 57//57 
f 67//67 66//66 91//91 
f 59//59 58//58 77//77 
f 98//98 81//81 103//103 
f 140//140 139//139 136//136 
f 157//157 167//167 166//166 
f 135//135 136//136 142//142 
f 70//70 69//69 73//73 
f 123//123 116//116 122//122 
f 173//173 175//175 169//169 
f 158//158 162//162 159//159 
f 107//107 106//106 112//112 
f 145//145 146//146 148//148 
f 82//82 70//70 73//73 
f 118//118 117//117 115//115 
f 169//169 178//178 173//173 
f 168//168 166//166 167//167 
f 129//129 124//124 130//130 
f 143//143 136//136 139//139 
f 154//154 155//155 151//151 
f 111//111 105//105 104//104 
f 139//139 137//137 138//138 
f 30//30 29//29 137//137 
f 111//111 112//112 106//106 
f 124//124 123//123 125//125 
f 137//137 60//60 138//138 
f 104//104 103//103 81//81 
f 118//118 120//120 114//114 
f 167//167 157//157 165//165 
f 113//113 108//108 110//110 
f 77//77 57//57 79//79 
f 59//59 77//77 75//75 
f 66//66 97//97 91//91 
f 171//171 172//172 179//179 
f 70//70 82//82 98//98 
f 156//156 163//163 164//164 
f 175//175 180//180 169//169 
f 172//172 176//176 179//179 
f 74//74 73//73 69//69 
f 164//164 165//165 156//156 
f 120//120 119//119 114//114 
f 168//168 169//169 180//180 
f 140//140 137//137 139//139 
f 170//170 179//179 176//176 
f 173//173 178//178 174//174 
f 80//80 161//161 138//138 
f 95//95 181//181 52//52 
f 52//52 181//181 182//182 
f 52//52 182//182 53//53 
f 53//53 182//182 183//183 
f 188//188 189//189 185//185 
f 185//185 189//189 186//186 
f 185//185 190//190 188//188 
f 188//188 190//190 191//191 
f 187//187 186//186 192//192 
f 192//192 186//186 189//189 
f 182//182 193//193 183//183 
f 183//183 193//193 184//184 
f 193//193 182//182 194//194 
f 194//194 182//182 181//181 
f 194//194 195//195 193//193 
f 193//193 195//195 191//191 
f 195//195 196//196 191//191 
f 191//191 196//196 188//188 
f 190//190 184//184 191//191 
f 191//191 184//184 193//193 
f 196//196 197//197 188//188 
f 188//188 197//197 189//189 
f 199//199 192//192 197//197 
f 197//197 192//192 189//189 
f 198//198 187//187 199//199 
f 199//199 187//187 192//192 
f 123//123 121//121 125//125 
f 127//127 131//131 126//126 
f 147//147 148//148 146//146 
f 81//81 98//98 82//82 
f 149//149 154//154 150//150 
f 153//153 149//149 148//148 
f 131//131 127//127 130//130 
f 109//109 108//108 113//113 
f 27//27 99//99 28//28 
f 28//28 99//99 62//62 
f 40//40 100//100 41//41 
f 41//41 100//100 200//200 
f 200//200 100//100 158//158 
f 120//120 118//118 115//115 
f 159//159 201//201 158//158 
f 158//158 201//201 200//200 
f 201//201 202//202 200//200 
f 200//200 202//202 41//41 
f 202//202 203//203 41//41 
f 41//41 203//203 39//39 
f 39//39 204//204 38//38 
f 38//38 204//204 68//68 
f 203//203 35//35 39//39 
f 39//39 35//35 204//204 
f 35//35 203//203 34//34 
f 34//34 203//203 205//205 
f 203//203 202//202 205//205 
f 205//205 202//202 206//206 
f 202//202 201//201 206//206 
f 206//206 201//201 207//207 
f 160//160 80//80 207//207 
f 25//25 26//26 208//208 
f 208//208 26//26 78//78 
f 68//68 204//204 37//37 
f 37//37 204//204 35//35 
f 60//60 99//99 80//80 
f 80//80 99//99 207//207 
f 159//159 160//160 201//201 
f 201//201 160//160 207//207 
f 162//162 164//164 163//163 
f 105//105 111//111 106//106 
f 117//117 122//122 116//116 
f 27//27 206//206 99//99 
f 99//99 206//206 207//207 
f 206//206 27//27 205//205 
f 205//205 27//27 25//25 
f 25//25 208//208 205//205 
f 205//205 208//208 34//34 
f 208//208 78//78 34//34 
f 34//34 78//78 36//36 
f 78//78 85//85 36//36 
f 36//36 85//85 86//86 
f 55//55 89//89 12//12 
f 15//15 2//2 32//32 
f 32//32 2//2 8//8 
f 2//2 4//4 8//8 
f 8//8 4//4 10//10 
f 48//48 49//49 92//92 
f 92//92 49//49 93//93 
f 32//32 23//23 15//15 
f 15//15 23//23 20//20 
f 19//19 16//16 20//20 
f 20//20 16//16 15//15 
f 52//52 50//50 95//95 
f 95//95 50//50 94//94 
f 47//47 3//3 83//83 
f 83//83 3//3 7//7 
f 48//48 4//4 47//47 
f 47//47 4//4 3//3 
f 92//92 10//10 48//48 
f 48//48 10//10 4//4 
f 43//43 11//11 92//92 
f 92//92 11//11 10//10 
f 44//44 102//102 43//43 
f 43//43 102//102 11//11 
f 88//88 84//84 44//44 
f 44//44 84//84 102//102 
f 89//89 85//85 88//88 
f 88//88 85//85 84//84 
f 55//55 86//86 89//89 
f 89//89 86//86 85//85 
f 54//54 87//87 55//55 
f 55//55 87//87 86//86 
f 54//54 101//101 87//87 
f 87//87 101//101 90//90 
f 83//83 50//50 6//6 
f 6//6 50//50 51//51 
f 7//7 94//94 83//83 
f 83//83 94//94 50//50 
