<svg xmlns="http://www.w3.org/2000/svg" viewBox="0 0 211.12 41.83"><defs><style>.cls-1{fill:none;}.cls-2{fill:#f4f4f5;}</style></defs><g id="Layer_2" data-name="Layer 2"><g id="Layer_1-2" data-name="Layer 1"><path class="cls-1" d="M17.67,9c-5,0-8.32,4-8.32,8.78v.1c0,4.75,3.43,8.88,8.41,8.88s8.37-4,8.37-8.79v-.09C26.13,13.11,22.7,9,17.67,9Z"/><path class="cls-1" d="M53.58,27.4c2.91,0,5.22-2.35,5.22-5.78v-.1c0-3.33-2.31-5.73-5.22-5.73s-5.17,2.4-5.17,5.73v.1C48.41,25,50.71,27.4,53.58,27.4Z"/><path class="cls-1" d="M198.34,14.9c-2.35,0-4,1.83-4.42,4.6h8.83C202.43,16.68,200.78,14.9,198.34,14.9Z"/><path class="cls-2" d="M17.76.75C7.61.75,0,8.41,0,17.86V18C0,27.4,7.52,35,17.67,35S35.44,27.3,35.44,17.86v-.1C35.44,8.32,27.92.75,17.76.75ZM26.13,18c0,4.75-3.34,8.79-8.37,8.79s-8.41-4.13-8.41-8.88v-.1C9.35,13,12.69,9,17.67,9s8.46,4.13,8.46,8.88Z"/><path class="cls-2" d="M48.6,31.21a9.55,9.55,0,0,0,7.75,3.66c6,0,11.23-5,11.23-13.3v-.09c0-8.13-5.21-13.16-11.28-13.16-3.8,0-6,1.83-7.7,3.95V8.88H39.67V41.83H48.6Zm-.19-9.69c0-3.33,2.3-5.73,5.17-5.73s5.22,2.4,5.22,5.73v.1c0,3.43-2.31,5.78-5.22,5.78s-5.17-2.4-5.17-5.78Z"/><path class="cls-2" d="M72.76,26.41c0,6.06,3.19,8.41,8.55,8.41a12.74,12.74,0,0,0,6.2-1.45v-7a7.92,7.92,0,0,1-3.38.84c-1.65,0-2.44-.75-2.44-2.54v-8.6h5.92V8.88H81.69V2.44H72.76V8.88h-3v7.19h3Z"/><rect class="cls-2" x="91.46" width="9.31" height="6.58"/><rect class="cls-2" x="91.65" y="8.88" width="8.93" height="25.43"/><polygon class="cls-2" points="115.01 15.51 123.37 28.29 123.56 28.29 131.97 15.41 131.97 34.31 141.04 34.31 141.04 1.41 131.41 1.41 123.56 14.15 115.71 1.41 106.08 1.41 106.08 34.31 115.01 34.31 115.01 15.51"/><rect class="cls-2" x="146.54" y="8.88" width="8.93" height="25.43"/><rect class="cls-2" x="146.36" width="9.3" height="6.58"/><path class="cls-2" d="M172.72,34.92c5.6,0,9-2.35,11.33-5.83l-6-4.32c-1.41,1.64-2.77,2.63-4.89,2.63-3,0-5.07-2.49-5.07-5.78v-.1c0-3.1,2.11-5.64,5-5.64a5.5,5.5,0,0,1,4.75,2.68l6.06-4.51c-2.16-3.43-5.64-5.68-10.86-5.68a13.21,13.21,0,0,0-13.63,13.25v.09A13.12,13.12,0,0,0,172.72,34.92Z"/><path class="cls-2" d="M211.12,22.23c0-7.47-4-13.91-12.83-13.91-7.52,0-12.83,5.87-12.83,13.3v.09c0,7.9,5.64,13.21,13.63,13.21a13.3,13.3,0,0,0,11-5.17l-4.93-4.09a7.67,7.67,0,0,1-5.64,2.59,5.26,5.26,0,0,1-5.5-4.19h17C211.12,23.45,211.12,22.79,211.12,22.23Zm-17.2-2.73c.47-2.77,2.07-4.6,4.42-4.6s4.09,1.78,4.41,4.6Z"/></g></g></svg>